<svg id="Group_22" data-name="Group 22" xmlns="http://www.w3.org/2000/svg" width="50.461" height="49.909" viewBox="0 0 50.461 49.909">
  <g id="Group_20" data-name="Group 20">
    <path id="Path_108" data-name="Path 108" d="M45.7,2.8H4.764A4.77,4.77,0,0,0,0,7.569V38.181a4.77,4.77,0,0,0,4.764,4.765h13.5a27.949,27.949,0,0,1-1.4,7.6h-3.3a1.085,1.085,0,1,0,0,2.17H36.9a1.085,1.085,0,1,0,0-2.17H33.6a27.953,27.953,0,0,1-1.4-7.6H45.7a4.77,4.77,0,0,0,4.764-4.765V7.569A4.77,4.77,0,0,0,45.7,2.8ZM2.17,7.569A2.6,2.6,0,0,1,4.764,4.974H45.7a2.6,2.6,0,0,1,2.594,2.595V35.786H2.17ZM31.317,50.542H19.144a30.25,30.25,0,0,0,1.3-7.6h9.583A30.254,30.254,0,0,0,31.317,50.542ZM48.291,38.181A2.6,2.6,0,0,1,45.7,40.776H4.764A2.6,2.6,0,0,1,2.17,38.181v-.225h46.12v.225Z" transform="translate(0 -2.804)" fill="#fff"/>
    <path id="Path_109" data-name="Path 109" d="M144.41,54.418h-2.5a10.523,10.523,0,0,0-.429-1.032l1.772-1.772a1.085,1.085,0,0,0,0-1.535L139.8,46.627a1.085,1.085,0,0,0-1.535,0L136.49,48.4a10.546,10.546,0,0,0-1.032-.429v-2.5a1.085,1.085,0,0,0-1.085-1.085h-4.883a1.085,1.085,0,0,0-1.085,1.085v2.5a10.544,10.544,0,0,0-1.032.429L125.6,46.627a1.085,1.085,0,0,0-1.535,0l-3.453,3.453a1.085,1.085,0,0,0,0,1.535l1.772,1.772a10.545,10.545,0,0,0-.429,1.032h-2.5a1.085,1.085,0,0,0-1.085,1.085v4.883a1.085,1.085,0,0,0,1.085,1.085h2.5a10.545,10.545,0,0,0,.429,1.032l-1.772,1.772a1.085,1.085,0,0,0,0,1.535l3.453,3.453a1.085,1.085,0,0,0,1.535,0l1.771-1.772a10.531,10.531,0,0,0,1.032.429v2.5a1.085,1.085,0,0,0,1.085,1.085h4.883a1.085,1.085,0,0,0,1.085-1.085v-2.5a10.529,10.529,0,0,0,1.032-.429l1.772,1.772a1.085,1.085,0,0,0,1.535,0l3.453-3.453a1.085,1.085,0,0,0,0-1.535L141.477,62.5a10.522,10.522,0,0,0,.429-1.032h2.5a1.085,1.085,0,0,0,1.085-1.085V55.5A1.085,1.085,0,0,0,144.41,54.418ZM143.325,59.3h-2.218a1.085,1.085,0,0,0-1.049.806,8.362,8.362,0,0,1-.853,2.052,1.085,1.085,0,0,0,.171,1.313l1.57,1.57-1.918,1.918-1.57-1.57a1.085,1.085,0,0,0-1.313-.171,8.354,8.354,0,0,1-2.052.853,1.085,1.085,0,0,0-.806,1.049v2.218h-2.713V67.122a1.085,1.085,0,0,0-.806-1.049,8.354,8.354,0,0,1-2.052-.853,1.085,1.085,0,0,0-1.313.171l-1.57,1.57-1.918-1.918,1.57-1.57a1.085,1.085,0,0,0,.171-1.313,8.35,8.35,0,0,1-.853-2.052,1.085,1.085,0,0,0-1.049-.806h-2.218V56.588h2.218a1.085,1.085,0,0,0,1.049-.806,8.353,8.353,0,0,1,.853-2.052,1.085,1.085,0,0,0-.171-1.313l-1.57-1.57,1.918-1.918,1.57,1.57a1.085,1.085,0,0,0,1.313.171,8.363,8.363,0,0,1,2.052-.853,1.085,1.085,0,0,0,.806-1.049V46.55h2.713v2.218a1.085,1.085,0,0,0,.806,1.049,8.355,8.355,0,0,1,2.052.853,1.085,1.085,0,0,0,1.313-.171l1.57-1.57,1.918,1.918-1.57,1.57a1.085,1.085,0,0,0-.171,1.313,8.36,8.36,0,0,1,.853,2.052,1.085,1.085,0,0,0,1.049.806h2.218V59.3Z" transform="translate(-106.7 -40.282)" fill="#fff"/>
    <path id="Path_110" data-name="Path 110" d="M198.927,118.7a6.24,6.24,0,1,0,6.24,6.24A6.247,6.247,0,0,0,198.927,118.7Zm0,10.309A4.069,4.069,0,1,1,203,124.943,4.074,4.074,0,0,1,198.927,129.012Z" transform="translate(-173.696 -107.28)" fill="#fff"/>
    <path id="Path_111" data-name="Path 111" d="M446.654,189.546a1.085,1.085,0,0,0-1.085,1.085v10.02a1.085,1.085,0,0,0,2.17,0v-10.02A1.085,1.085,0,0,0,446.654,189.546Z" transform="translate(-401.655 -171.141)" fill="#fff"/>
    <path id="Path_112" data-name="Path 112" d="M446.654,146.391a1.085,1.085,0,0,0-1.085,1.085v.109a1.085,1.085,0,1,0,2.17,0v-.109A1.085,1.085,0,0,0,446.654,146.391Z" transform="translate(-401.655 -132.24)" fill="#fff"/>
  </g>
</svg>
