<svg id="Group_21" data-name="Group 21" xmlns="http://www.w3.org/2000/svg" width="58.253" height="46.848" viewBox="0 0 58.253 46.848">
  <rect id="Rectangle_4" data-name="Rectangle 4" width="55.801" height="14.799" transform="translate(1.226 1.226)" fill="none"/>
  <rect id="Rectangle_6" data-name="Rectangle 6" width="55.801" height="14.799" transform="translate(1.226 16.025)" fill="none"/>
  <rect id="Rectangle_8" data-name="Rectangle 8" width="55.801" height="14.799" transform="translate(1.226 30.823)" fill="none"/>
  <g id="Group_1" data-name="Group 1">
    <path id="Path_1" data-name="Path 1" d="M57.027,50.122H1.226A1.226,1.226,0,0,0,0,51.348v44.4A1.226,1.226,0,0,0,1.226,96.97h55.8a1.226,1.226,0,0,0,1.226-1.226v-44.4A1.226,1.226,0,0,0,57.027,50.122ZM2.453,67.373H55.8V79.719H2.453Zm0-14.8H55.8V64.92H2.453ZM55.8,94.517H2.453V82.172H55.8V94.517Z" transform="translate(0 -50.122)" fill="#fff"/>
    <path id="Path_2" data-name="Path 2" d="M372.132,93.238H362.32a1.226,1.226,0,0,0-1.226,1.226v4.987a1.226,1.226,0,0,0,1.226,1.226h9.811a1.226,1.226,0,0,0,1.226-1.226V94.464A1.226,1.226,0,0,0,372.132,93.238Zm-1.226,4.987h-7.358V95.691h7.358Z" transform="translate(-320.01 -88.332)" fill="#fff"/>
    <path id="Path_3" data-name="Path 3" d="M372.132,223.3H362.32a1.226,1.226,0,0,0-1.226,1.226v4.987a1.226,1.226,0,0,0,1.226,1.226h9.811a1.226,1.226,0,0,0,1.226-1.226V224.53A1.226,1.226,0,0,0,372.132,223.3Zm-1.226,4.987h-7.358v-2.535h7.358Z" transform="translate(-320.01 -203.6)" fill="#fff"/>
    <path id="Path_4" data-name="Path 4" d="M362.321,360.809h9.811a1.226,1.226,0,0,0,1.226-1.226V354.6a1.226,1.226,0,0,0-1.226-1.226h-9.811a1.226,1.226,0,0,0-1.226,1.226v4.987A1.226,1.226,0,0,0,362.321,360.809Zm1.226-4.987h7.358v2.535h-7.358Z" transform="translate(-320.011 -318.867)" fill="#fff"/>
    <path id="Path_5" data-name="Path 5" d="M57.276,115.151a1.227,1.227,0,1,0,.867.359A1.233,1.233,0,0,0,57.276,115.151Z" transform="translate(-49.673 -107.752)" fill="#fff"/>
    <path id="Path_6" data-name="Path 6" d="M109.015,115.151a1.226,1.226,0,1,0,1.226,1.226A1.227,1.227,0,0,0,109.015,115.151Z" transform="translate(-95.525 -107.752)" fill="#fff"/>
    <path id="Path_7" data-name="Path 7" d="M160.754,115.151a1.227,1.227,0,1,0,.867.359A1.236,1.236,0,0,0,160.754,115.151Z" transform="translate(-141.377 -107.752)" fill="#fff"/>
    <path id="Path_8" data-name="Path 8" d="M57.276,245.221a1.227,1.227,0,1,0,.867.359A1.233,1.233,0,0,0,57.276,245.221Z" transform="translate(-49.673 -223.023)" fill="#fff"/>
    <path id="Path_9" data-name="Path 9" d="M109.015,245.221a1.226,1.226,0,1,0,1.226,1.226A1.227,1.227,0,0,0,109.015,245.221Z" transform="translate(-95.525 -223.023)" fill="#fff"/>
    <path id="Path_10" data-name="Path 10" d="M160.754,245.221a1.227,1.227,0,1,0,.867.359A1.236,1.236,0,0,0,160.754,245.221Z" transform="translate(-141.377 -223.023)" fill="#fff"/>
    <path id="Path_11" data-name="Path 11" d="M57.276,377.742a1.227,1.227,0,1,0-.867-.359A1.235,1.235,0,0,0,57.276,377.742Z" transform="translate(-49.673 -338.293)" fill="#fff"/>
    <path id="Path_12" data-name="Path 12" d="M109.015,377.742a1.226,1.226,0,1,0-1.226-1.226A1.227,1.227,0,0,0,109.015,377.742Z" transform="translate(-95.525 -338.293)" fill="#fff"/>
    <path id="Path_13" data-name="Path 13" d="M160.754,377.742a1.227,1.227,0,1,0-.867-.359A1.235,1.235,0,0,0,160.754,377.742Z" transform="translate(-141.377 -338.293)" fill="#fff"/>
    <path id="Path_14" data-name="Path 14" d="M241.358,115.151h-3.72a1.226,1.226,0,1,0,0,2.453h3.72a1.226,1.226,0,0,0,0-2.453Z" transform="translate(-209.513 -107.752)" fill="#fff"/>
    <path id="Path_15" data-name="Path 15" d="M241.358,245.218h-3.72a1.226,1.226,0,1,0,0,2.453h3.72a1.226,1.226,0,0,0,0-2.453Z" transform="translate(-209.513 -223.021)" fill="#fff"/>
    <path id="Path_16" data-name="Path 16" d="M237.637,377.737h3.72a1.226,1.226,0,0,0,0-2.453h-3.72a1.226,1.226,0,1,0,0,2.453Z" transform="translate(-209.513 -338.288)" fill="#fff"/>
  </g>
</svg>
