<svg xmlns="http://www.w3.org/2000/svg" width="43.093" height="49.442" viewBox="0 0 43.093 49.442">
  <g id="Group_1064" data-name="Group 1064" transform="translate(-256.649 -51.21)">
    <g id="Group_1063" data-name="Group 1063" transform="translate(256.649 51.21)">
      <path id="Path_1736" data-name="Path 1736" d="M323.57,274.876a23.992,23.992,0,0,1-2.781,11.544,22.438,22.438,0,0,1-3.061,4.4,1.329,1.329,0,0,1-2.185-.306l-17.977-37.08a1.329,1.329,0,0,1,.62-1.776,1.345,1.345,0,0,1,.622-.133c.518.02,1.023.046,1.518.075a36.31,36.31,0,0,1,6.319.86,23.859,23.859,0,0,1,6.822,2.714,20.875,20.875,0,0,1,7.434,7.93A24.517,24.517,0,0,1,323.57,274.876Z" transform="translate(-280.477 -251.464)" fill="#fff"/>
      <path id="Path_1737" data-name="Path 1737" d="M245.438,294a1.379,1.379,0,0,1-.362,1.667,33.094,33.094,0,0,1-4.343,2.545,37.944,37.944,0,0,1-4.519,1.838,1.379,1.379,0,0,1-1.675-.709L212.22,253.2a1.379,1.379,0,0,1,1.242-1.987h10.37a1.379,1.379,0,0,1,1.242.779Z" transform="translate(-212.079 -251.21)" fill="#fff"/>
    </g>
    <path id="Path_1738" data-name="Path 1738" d="M220.232,403.867l-7.982,16.507a1.379,1.379,0,0,0,1.242,1.987h15.966a1.378,1.378,0,0,0,1.242-1.977l-7.99-16.516a1.381,1.381,0,0,0-2.483,0Z" transform="translate(44.546 -321.708)" fill="#fff"/>
  </g>
</svg>
