<svg xmlns="http://www.w3.org/2000/svg" xmlns:xlink="http://www.w3.org/1999/xlink" width="744.235" height="560.24" viewBox="0 0 744.235 560.24">
  <defs>
    <linearGradient id="linear-gradient" x1="0.548" y1="0.881" x2="0.45" y2="-0.165" gradientUnits="objectBoundingBox">
      <stop offset="0" stop-color="#a7adff"/>
      <stop offset="1" stop-color="#e3e5fc"/>
    </linearGradient>
    <linearGradient id="linear-gradient-2" x1="0.341" y1="0.512" x2="-8.152" y2="-9.088" xlink:href="#linear-gradient"/>
  </defs>
  <g id="Group_1106" data-name="Group 1106" transform="translate(-924 -2628.418)">
    <g id="Background" transform="translate(1094.134 2883.267)">
      <g id="Chair">
        <path id="Path_1485" data-name="Path 1485" d="M878.557,558.8s36.288,58.156,70.968,90.2,75.047,64.862,50.6,125.136-96.5,84.958-225.352,81.808-174.346-3.836-202.6-67.757,65.791-78.257,130.034-97.691S878.557,558.8,878.557,558.8Z" transform="translate(-567.007 -558.8)" fill="#e3e5fc"/>
        <path id="Path_1486" data-name="Path 1486" d="M912.79,767.98s17.674,68.219-45.337,84.411-180.585,13.814-224.848-17.7S912.79,767.98,912.79,767.98Z" transform="translate(-595.044 -641.023)" opacity="0.49" fill="url(#linear-gradient)"/>
      </g>
    </g>
    <path id="Path_1487" data-name="Path 1487" d="M1344.109,858.149a16.691,16.691,0,0,0,6.773-19.167c-3.994-11.289-14.317-7.483-21.655-13.413-8.643-6.98,1.809-17.959,1.232-26.2-.631-9.068-8.794-17.825-11.252-26.589-5.638-20.144,17.261-5.11,23.792-7.459,2.731-.983,4.521-3.727,5.153-6.567,1.6-7.241-1.445-13.091,2.519-19.944,3.83-6.616,9.486-9.6,7.854-18.584-.923-5.086-4.06-9.747-3.981-14.918.024-1.481.443-3.144,1.736-3.866a4.036,4.036,0,0,1,3.271-.03c3.526,1.238,5.845,4.528,8.685,6.961s7.4,3.939,10.13,1.378c1.815-1.705,1.991-4.461,2.361-6.925.661-4.443,3.781-7.526,7.653-4.959,4.218,2.8,2.6,13.814,1.966,17.765-1.008,6.263-2.537,12.77-.674,18.839,3.077,10.039,11.489-1.208,15.155-4.534,3-2.725,8.023-4.358,10.906-1.511,5.741,5.663-3.49,13.231-4.7,18.6-.583,2.555.17,5.614,2.44,6.925,6.646,3.848,12.26-3.01,13.267,7.228.692,7.016-5.657,13.7-1.718,20.721,3.441,6.13,14.894,8.734,10.366,17.334-2.78,5.28-14.748,5.044-14.117,12.557.413,4.9,7.775,7.119,7.781,12.035.006,3.7-4.3,5.887-8,6.075s-7.593-.674-11,.771a8.951,8.951,0,0,0-4.91,10.421c1.044,3.5,4.3,6.688,3.277,10.2-1.232,4.218-7.077,4.37-11.416,3.7C1379.269,852.207,1360.278,850.356,1344.109,858.149Z" transform="translate(231.806 2270.171)" fill="#131313"/>
    <g id="Group_840" data-name="Group 840" transform="translate(1608.271 3045.177)">
      <path id="Path_1488" data-name="Path 1488" d="M1415.255,906.965a1.133,1.133,0,0,1-1.135-1.135V826.7a1.135,1.135,0,1,1,2.27,0v79.119A1.134,1.134,0,0,1,1415.255,906.965Z" transform="translate(-1414.12 -825.57)" fill="#fff"/>
    </g>
    <g id="Group_841" data-name="Group 841" transform="translate(1608.269 3067.917)">
      <path id="Path_1489" data-name="Path 1489" d="M1415.254,890.9a1.138,1.138,0,0,1-.88-1.857l20.751-25.582a1.139,1.139,0,0,1,1.766,1.438l-20.751,25.582A1.154,1.154,0,0,1,1415.254,890.9Z" transform="translate(-1414.117 -863.038)" fill="#fff"/>
    </g>
    <g id="Group_842" data-name="Group 842" transform="translate(1583.535 3051.085)">
      <path id="Path_1490" data-name="Path 1490" d="M1399.235,858.389a1.12,1.12,0,0,1-.734-.267l-24.732-20.812a1.137,1.137,0,0,1,1.463-1.742l24.732,20.812a1.142,1.142,0,0,1,.14,1.6A1.115,1.115,0,0,1,1399.235,858.389Z" transform="translate(-1373.364 -835.304)" fill="#fff"/>
    </g>
    <g id="Group_844" data-name="Group 844" transform="translate(1565.913 3104.298)">
      <path id="Path_1491" data-name="Path 1491" d="M1355.11,944.286c3.253,21.625,6.185,44.245,11.659,65.111a10.474,10.474,0,0,0,2.094,4.673c1.3,1.317,3.077,1.341,4.71,1.3,9.444-.219,18.906.388,28.349.334,8.928-.049,16.3.674,17.237-14.154.322-5.141,1.135-57.276,5.875-57.276C1425.016,944.286,1355.11,944.286,1355.11,944.286Z" transform="translate(-1348.567 -931.352)" fill="#978cff"/>
      <path id="Path_1492" data-name="Path 1492" d="M1414.412,948.835h-57.154a12.966,12.966,0,0,1-12.928-12.928h0a12.966,12.966,0,0,1,12.928-12.928h57.154a12.966,12.966,0,0,1,12.928,12.928h0A12.966,12.966,0,0,1,1414.412,948.835Z" transform="translate(-1344.33 -922.98)" fill="#a7adff"/>
    </g>
    <path id="Hair_3_" d="M923.922,173.017s7.49,16.642-4.212,26.887-27.609,2.136-43.049,11.519-13.777,20.5-6.694,45.259c8.424,29.448,17.625,28.568,25.9,30.7s10.743,25.181,11.677,35.851,2.337,17.923-27.142,32.434S867,392.372,869.96,421.141c3.271,31.821-34.486,50.175-41.034,57.858s-22,8.964-30.419-7.253,34.383-28.155,30.644-54.186-26.6-43.547,5.687-69.153,25.91-46.084,15.149-66.993-15.908-29.017-7.022-55.9-.467-18.778,11.228-40.118S908.482,140.583,923.922,173.017Z" transform="translate(436.564 2482.397)" fill="#131313"/>
    <path id="Neck" d="M972.31,383.755l2.349,43.814,34.3,13.225s-20.623-30.176-17.128-57.045S972.31,383.755,972.31,383.755Z" transform="translate(367.814 2397.967)" fill="#d4a79a"/>
    <path id="Path_1493" data-name="Path 1493" d="M1017.234,554s-2.276-4.17-9.1-25.582-9.286-29.375-18.76-50.1-29.187-33.666-29.187-33.666l-24.635-1.329s-3.035.188-17.243,11.938-27.858,45.295-27.858,45.295l-6.063,66.707,42.643,31.457,30.14,10.864a22.062,22.062,0,0,1-3.35-6.16c-5.05-15.009,11.872-98.134,12.442-105.526s14.888,63.108,14.888,63.108l12.4-3.6,8.509,27.111,5.323-27.682Z" transform="translate(402.373 2369.855)" fill="#ffe644"/>
    <path id="Path_1494" data-name="Path 1494" d="M1078.2,681.457l-1.724-5.487-2.749,14.3Z" transform="translate(327.949 2278.411)" fill="url(#linear-gradient-2)"/>
    <path id="Path_1495" data-name="Path 1495" d="M1025.491,596.006s-14.317-70.5-14.888-63.108-17.492,90.517-12.442,105.526a22.059,22.059,0,0,0,3.35,6.16l31.008,11.174,11.137-21.947,2.749-14.3L1037.9,592.4Z" transform="translate(358.022 2334.862)" fill="#fdc510"/>
    <path id="Path_1496" data-name="Path 1496" d="M1025.491,596.006s-14.317-70.5-14.888-63.108-17.492,90.517-12.442,105.526a22.059,22.059,0,0,0,3.35,6.16l31.008,11.174,11.137-21.947,2.749-14.3L1037.9,592.4Z" transform="translate(358.022 2334.862)" fill="#d2b600"/>
    <g id="Group_845" data-name="Group 845" transform="translate(1132.233 2904.358)">
      <path id="Path_1497" data-name="Path 1497" d="M629.78,593.55l174.1,8.4,33.788,32.726-162.62-4.1Z" transform="translate(-629.78 -593.55)"/>
    </g>
    <path id="Path_1498" data-name="Path 1498" d="M772.625,545.121,615.443,534.506c-4.248.328-7.933-2.531-8.23-6.4l-31.676-84.982c-.3-3.86,2.9-7.259,7.144-7.587l157.182,10.621c4.248-.328,7.932,2.531,8.23,6.4l31.676,84.982C780.072,541.394,776.868,544.793,772.625,545.121Z" transform="translate(523.782 2372.917)" fill="#e3e5fc"/>
    <g id="Leg_1_" transform="translate(924 2899.956)">
      <path id="Skin" d="M482.985,842.19,438.54,907.283l20.235,17.1,42.339-70.671C501.114,853.7,491.409,842.785,482.985,842.19Z" transform="translate(-346.376 -686.882)" fill="#d4a79a"/>
      <path id="Shoe" d="M288.837,982.754s17.1,5.839,49.859,8.266,69.329,3.648,75.975-1.214,10.919-46.2,0-46.2-15.167,15.8-34.425,1.7c-16.5-12.084-29.679,10.7-58.4,16.776S281.481,970.6,288.837,982.754Z" transform="translate(-286.686 -726.046)" fill="#f3aa02"/>
      <path id="Leg_2_" d="M746.732,671.22c-3.927-7.386-25.181-3.223-50.654-12.7s-41.933-29.375-70.877-52.3-26.966-18.954-39.456-19.9-27.955,32.786-36.683,50.606c-18.372,37.52-41.623,71.047-76.358,92.86-10.555,6.628-57.057,31.839-64.826,42.4C391.516,794.409,471.964,794.6,493,797.164c20.824,2.537,32.5-9.292,40.925-27.985,9.614-21.321,20.132-42.188,30.638-63.054,5.256-10.439,10.536-20.872,15.689-31.366,2.221-4.522,7.028-20.933,12.387-22.978,16.484-6.276,38.242,43.972,42.867,55.261,9.316,22.742,43.42,49.276,68.2,51.929s43.42-13.832,51.546-37.9S746.732,671.22,746.732,671.22Z" transform="translate(-333.467 -586.298)" fill="#4b369d"/>
    </g>
    <g id="Leg" transform="translate(1008.779 2899.956)">
      <path id="Skin_1_" d="M622.675,850.32,578.23,915.413l20.235,17.1L640.8,861.839C640.8,861.833,631.1,850.915,622.675,850.32Z" transform="translate(-486.063 -690.078)" fill="#eac2ab"/>
      <path id="Shoe_1_" d="M428.525,990.884s17.1,5.839,49.859,8.266,69.329,3.648,75.975-1.214,10.919-46.2,0-46.2-15.167,15.8-34.425,1.7c-16.5-12.084-29.679,10.7-58.4,16.776S421.163,978.727,428.525,990.884Z" transform="translate(-426.372 -729.242)" fill="#fdc510"/>
      <path id="Leg_3_" d="M865.549,671.22c-3.751-7.386-24.071-3.223-48.421-12.7s-40.081-29.375-67.751-52.3-25.776-18.954-37.714-19.9S684.94,619.1,676.6,636.923c-25.655,54.812-78.451,91.6-126.5,125.44-2.986,2.1-6.336,5.019-5.717,8.618a8.883,8.883,0,0,0,2.968,4.607c17.825,17.206,51.219,24.945,75.216,23.822,24.162-1.129,37.278-21.291,46.406-41.229,16.326-35.669,32.276-72.425,52.111-106.279,7.453-12.709,31.208,38.6,33.272,43.377,12.3,28.526,36.725,59.958,70.076,63.691,23.688,2.652,41.5-13.832,49.276-37.9S865.549,671.22,865.549,671.22Z" transform="translate(-472.729 -586.298)" fill="#5a54ff"/>
    </g>
    <path id="Face" d="M913.568,227.757s-18.317,13.51-11.028,43.857,29.958,56.262,39.1,54.435c25.291-5.05,34.158-22.924,42.928-38.261,10.755-18.809-10.6-64.692-10.6-64.692L953.807,212.22Z" transform="translate(395.913 2460.698)" fill="#eac2ab"/>
    <g id="Hair_1_" transform="translate(1275.004 2639.411)">
      <path id="Path_1499" data-name="Path 1499" d="M970.161,202.072s12.727,4.267,23.913,22.189,3.848,20.848,3.848,44.876c0,7.022-1.317,13.941-5.122,19.925-2.762,4.346-6.7,7.769-9.559,12.029-3.611,5.377-4.764,11.447-4.473,17.862.613,13.565,2.78,24.829,14.827,32.489,13.025,8.279,19.1,19.337,22.523,34.279,4.1,17.892,33.593,28.016,43.887,21.188s-20.411-2.27-14.323-31.712,8.169-41.945-9.614-50.126-9.286-10.342.073-28.265-14.767-17.7-5.244-48.9c10.991-36.009,1.032-76.139-52.784-65.044S970.161,202.072,970.161,202.072Z" transform="translate(-899.184 -166.435)" fill="#131313"/>
      <g id="Group_847" data-name="Group 847">
        <path id="Path_1500" data-name="Path 1500" d="M922.889,226.917c15.44-9.389,11.7-16.775,23.4-27.014s4.212-26.887,4.212-26.887c-15.44-32.434-58.022-8.964-69.724,12.375s-2.337,13.231-11.228,40.118c-6.13,18.529-5.584,28.143-1.129,39.177l25.169,10.19C883.4,236.215,911.272,233.976,922.889,226.917Z" transform="translate(-865.015 -157.013)" fill="#131313"/>
      </g>
    </g>
    <path id="Arm" d="M1002.965,647.391s0,10.421-3.981,8.527-41.314-25.206-46.242-30.7-16.49-25.394-17.055-29.375,1.329-4.17-6.446-3.035-21.795,5.5-19.707,7.957,7.957.759,7.957.759-6.883,4.358-3.538,4.928,13.2-1.329,13.2,1.705-.57,13.267,1.706,18.384,5.116,6.822,12.509,8.527,8.7,1.135,14.773,7.392,40,36.385,44.354,37.9,6.251,4.17,11.562-5.5,9.1-17.055,9.474-32.216A240.391,240.391,0,0,0,1020.2,612.9l-16.867,3.035C1003.347,615.934,1004.858,632.988,1002.965,647.391Z" transform="translate(392.572 2311.335)" fill="#eac2ab"/>
    <path id="Path_1501" data-name="Path 1501" d="M1153.1,316.688c3.022-13.85,9.771-27.658,14.724-40.955,2.634-7.065,8.418-16.593,9.007-24.162a4.745,4.745,0,0,1,5.286-4.109l100.956-6.822a4.743,4.743,0,0,1,4.588,4.874l-20.344,54.581a4.745,4.745,0,0,1-5.286,4.109l-81.419,5.2c-4.989,3.029-12.9,6.057-17.9,9.074C1157.17,321.823,1150.323,329.4,1153.1,316.688Z" transform="translate(297.002 2449.527)" fill="#131313"/>
    <g id="Group_848" data-name="Group 848" transform="translate(1495.378 2707.266)">
      <path id="Path_1502" data-name="Path 1502" d="M1271.175,302.557l32.8-1.426a4.024,4.024,0,0,0,3.836-4.188h0a4.024,4.024,0,0,0-4.188-3.836l-32.8,1.426a4.024,4.024,0,0,0-3.836,4.188h0A4.032,4.032,0,0,0,1271.175,302.557Z" transform="translate(-1243.392 -278.361)" fill="#fff"/>
      <path id="Path_1503" data-name="Path 1503" d="M1232.305,279.421l59.43-2.579a4.024,4.024,0,0,0,3.836-4.188h0a4.024,4.024,0,0,0-4.188-3.836l-59.43,2.579a4.024,4.024,0,0,0-3.836,4.188h0A4.028,4.028,0,0,0,1232.305,279.421Z" transform="translate(-1228.114 -268.814)" fill="#fff"/>
    </g>
    <path id="Path_1504" data-name="Path 1504" d="M565.662,329.373c-3.5-16.035-11.307-32.015-17.049-47.407-3.047-8.175-9.747-19.2-10.427-27.967a5.488,5.488,0,0,0-6.118-4.752l-116.858-7.9a5.486,5.486,0,0,0-5.311,5.638l23.549,63.181a5.488,5.488,0,0,0,6.118,4.752l94.244,6.027c5.778,3.5,14.93,7.016,20.72,10.506C560.947,335.321,568.873,344.091,565.662,329.373Z" transform="translate(588.888 2449.248)" fill="#131313"/>
    <g id="Group_849" data-name="Group 849" transform="translate(1024.044 2710.385)">
      <path id="Path_1505" data-name="Path 1505" d="M499.739,313.01l-37.969-1.651a4.665,4.665,0,0,1-4.443-4.849h0a4.665,4.665,0,0,1,4.849-4.443l37.969,1.651a4.665,4.665,0,0,1,4.443,4.849h0A4.668,4.668,0,0,1,499.739,313.01Z" transform="translate(-453.803 -285.002)" fill="#fff"/>
      <path id="Path_1506" data-name="Path 1506" d="M524.765,286.235l-68.8-2.986a4.664,4.664,0,0,1-4.443-4.849h0a4.664,4.664,0,0,1,4.849-4.443l68.8,2.986a4.665,4.665,0,0,1,4.443,4.849h0A4.668,4.668,0,0,1,524.765,286.235Z" transform="translate(-451.523 -273.953)" fill="#fff"/>
    </g>
    <path id="Path_1507" data-name="Path 1507" d="M707.3,195.569c-2.252-10.324-7.283-20.611-10.973-30.522-1.96-5.262-6.276-12.363-6.713-18.008a3.532,3.532,0,0,0-3.939-3.059l-75.241-5.08a3.54,3.54,0,0,0-3.423,3.629l15.161,40.676a3.532,3.532,0,0,0,3.939,3.059l60.681,3.878c3.721,2.258,9.614,4.516,13.34,6.761C704.268,199.4,709.367,205.043,707.3,195.569Z" transform="translate(511.405 2489.518)" fill="#131313"/>
    <g id="Group_850" data-name="Group 850" transform="translate(1134.682 2641.154)">
      <path id="Path_1508" data-name="Path 1508" d="M664.854,185.028l-24.447-1.062a3,3,0,0,1-2.859-3.12h0a3,3,0,0,1,3.12-2.859l24.447,1.062a3,3,0,0,1,2.859,3.12h0A3,3,0,0,1,664.854,185.028Z" transform="translate(-635.281 -167)" fill="#fff"/>
      <path id="Path_1509" data-name="Path 1509" d="M680.97,167.79l-44.294-1.924a3,3,0,0,1-2.859-3.12h0a3,3,0,0,1,3.12-2.859l44.294,1.924a3,3,0,0,1,2.859,3.12h0A3,3,0,0,1,680.97,167.79Z" transform="translate(-633.815 -159.885)" fill="#fff"/>
    </g>
    <g id="Element" transform="translate(1180.874 2732.993)">
      <path id="Path_1510" data-name="Path 1510" d="M752.339,322.15,714.37,320.5a4.664,4.664,0,0,1-4.443-4.849h0a4.664,4.664,0,0,1,4.849-4.443l37.969,1.651a4.664,4.664,0,0,1,4.443,4.849h0A4.672,4.672,0,0,1,752.339,322.15Z" transform="translate(-709.923 -311.203)" fill="#131313"/>
      <path id="Path_1511" data-name="Path 1511" d="M758.579,352.72l-37.969-1.651a4.664,4.664,0,0,1-4.443-4.849h0a4.664,4.664,0,0,1,4.849-4.443l37.969,1.651a4.664,4.664,0,0,1,4.443,4.849h0A4.664,4.664,0,0,1,758.579,352.72Z" transform="translate(-712.376 -323.219)" fill="#131313"/>
      <path id="Path_1512" data-name="Path 1512" d="M769.669,384.11,731.7,382.459a4.665,4.665,0,0,1-4.443-4.849h0a4.665,4.665,0,0,1,4.849-4.443l37.969,1.651a4.664,4.664,0,0,1,4.443,4.849h0A4.664,4.664,0,0,1,769.669,384.11Z" transform="translate(-716.735 -335.558)" fill="#131313"/>
    </g>
    <g id="Group_1067" data-name="Group 1067" transform="translate(927.793 2798.236)">
      <g id="Group_1063" data-name="Group 1063" transform="translate(256.649 51.21)">
        <path id="Path_1736" data-name="Path 1736" d="M311.69,264.264a13.088,13.088,0,0,1-1.517,6.3,12.239,12.239,0,0,1-1.67,2.4.725.725,0,0,1-1.192-.167l-9.806-20.226a.725.725,0,0,1,.338-.969.733.733,0,0,1,.339-.073c.283.011.558.025.828.041a19.807,19.807,0,0,1,3.447.469,13.015,13.015,0,0,1,3.721,1.48,11.387,11.387,0,0,1,4.055,4.326A13.374,13.374,0,0,1,311.69,264.264Z" transform="translate(-288.183 -251.493)" fill="#131313"/>
        <path id="Path_1737" data-name="Path 1737" d="M230.276,274.554a.752.752,0,0,1-.2.909,18.054,18.054,0,0,1-2.369,1.388,20.7,20.7,0,0,1-2.465,1,.752.752,0,0,1-.914-.387l-12.175-25.173a.752.752,0,0,1,.677-1.084h5.657a.752.752,0,0,1,.677.425Z" transform="translate(-212.079 -251.21)" fill="#131313"/>
      </g>
      <path id="Path_1738" data-name="Path 1738" d="M216.54,403.513l-4.354,9a.752.752,0,0,0,.677,1.084h8.709a.751.751,0,0,0,.677-1.078l-4.358-9.009a.753.753,0,0,0-1.355,0Z" transform="translate(44.543 -335.421)" fill="#131313"/>
    </g>
  </g>
</svg>
