<svg id="Group_28" data-name="Group 28" xmlns="http://www.w3.org/2000/svg" width="73.091" height="59.38" viewBox="0 0 73.091 59.38">
  <path id="Path_133" data-name="Path 133" d="M73.091,93.037a1.477,1.477,0,0,0-1.477-1.477h-4.8V53.892a5.876,5.876,0,0,0-5.869-5.869h-48.8a5.876,5.876,0,0,0-5.869,5.869V91.56h-4.8A1.477,1.477,0,0,0,0,93.037v2.116a7.49,7.49,0,0,0,7.481,7.481H60.541l4.336,4.336a1.476,1.476,0,0,0,2.088,0l4.7-4.7a1.476,1.476,0,0,0,0-2.088l-.282-.282a7.442,7.442,0,0,0,1.709-4.75V93.037ZM9.229,53.892a2.919,2.919,0,0,1,2.916-2.916h48.8a2.919,2.919,0,0,1,2.916,2.916V91.56H63.04L51.36,79.881h6.951a1.477,1.477,0,1,0,0-2.953H51.357a16.349,16.349,0,0,0,.155-10.613h.98a1.477,1.477,0,1,0,0-2.953H50.2a16.2,16.2,0,0,0-2.632-3.451c-.081-.081-.164-.161-.247-.241h4.631a1.477,1.477,0,0,0,0-2.953H43.4a1.479,1.479,0,0,0-.281.027,16.324,16.324,0,0,0-14-.027H14.4a1.477,1.477,0,1,0,0,2.953H24.849c-.083.079-.165.159-.247.241a16.325,16.325,0,0,0-2.639,3.451h-4.1a1.477,1.477,0,1,0,0,2.953h2.786a16.2,16.2,0,0,0-.748,3.692H14.4a1.477,1.477,0,0,0,0,2.953H19.92a16.175,16.175,0,0,0,.792,3.692H17.867a1.477,1.477,0,0,0,0,2.953h4.2A16.34,16.34,0,0,0,24.6,82.88c.141.141.286.279.431.414H17.867a1.477,1.477,0,1,0,0,2.953H29.493a16.322,16.322,0,0,0,14.179-.482l5.794,5.794H9.229ZM36.088,84.685a13.245,13.245,0,0,1-5.6-1.234c-.033-.017-.067-.033-.1-.047a13.312,13.312,0,1,1,5.707,1.281Zm-28.607,15a4.533,4.533,0,0,1-4.528-4.528v-.64H52.419l5.168,5.168Zm58.439,4.157L46.194,84.112a16.535,16.535,0,0,0,1.379-1.231A16.317,16.317,0,0,0,48.8,81.5l19.728,19.728Zm.072-9.325h4.145v.64a4.5,4.5,0,0,1-.859,2.647Z" transform="translate(0 -48.023)" fill="#fff"/>
  <path id="Path_134" data-name="Path 134" d="M215.845,148.588v-1.53a5.168,5.168,0,0,0-10.336,0v1.53a2.34,2.34,0,0,0-1.846,2.284v7.139A2.339,2.339,0,0,0,206,160.347h9.354a2.339,2.339,0,0,0,2.337-2.337v-7.139A2.34,2.34,0,0,0,215.845,148.588Zm-7.383-1.53a2.215,2.215,0,1,1,4.43,0v1.477h-4.43v-1.477Zm6.276,10.336h-8.121v-5.906h8.121Z" transform="translate(-174.589 -128.49)" fill="#fff"/>
  <path id="Path_135" data-name="Path 135" d="M398.665,111.871h.133a1.477,1.477,0,1,0,0-2.953h-.133a1.477,1.477,0,1,0,0,2.953Z" transform="translate(-340.487 -100.225)" fill="#fff"/>
</svg>
