<svg xmlns="http://www.w3.org/2000/svg" width="1921.999" height="475.649" viewBox="0 0 1921.999 475.649">
  <g id="Group_574" data-name="Group 574" transform="translate(1 -630.405)">
    <path id="Path_983" data-name="Path 983" d="M1920.5,933.728c-1020.71,323.077-1921,0-1921,0v172.326h1921Z" fill="#fff"/>
    <path id="Intersection_1" data-name="Intersection 1" d="M4372.3,3507.933l0,0,0,0c-42.8,0-86.117-.746-128.754-2.217-42.791-1.477-85.925-3.722-128.2-6.672-42.52-2.965-85.222-6.717-126.917-11.151-42-4.468-84.024-9.738-124.9-15.664-41.243-5.977-82.338-12.773-122.142-20.2-40.18-7.493-80.1-15.823-118.657-24.763-38.962-9.034-77.462-18.912-114.43-29.355-33.3-9.408-66.123-19.49-97.741-30.025v-15c31.592,10.527,64.411,20.61,97.739,30.027,7.823,2.208,15.791,4.415,23.683,6.555l4.225-23.973.243-1.358,1.4-7.959,17.111,3.018,11.852-95.707a89.454,89.454,0,0,1,6.634-24.45l11.63-26.993.36-3.445-16-1.132a7.936,7.936,0,0,1-5.638-2.907l-.009,0-.006-.009,0-.006-.006-.006,0,0,0-.008-.006,0,0-.011,0,0a.017.017,0,0,1,0-.007l-.008-.006s0-.006-.007-.006l0-.006v0a.12.12,0,0,1-.017-.021l0-.006a.156.156,0,0,1-.01-.017l-.007-.006a.024.024,0,0,0-.008-.011l-.007-.006s0-.006-.006-.009l0,0a.078.078,0,0,1,0-.013l-.006,0a.029.029,0,0,0-.006-.009l-.013-.017-.019-.028c-.006,0-.009-.009-.011-.015l0,0,0,0,0-.006a.055.055,0,0,0-.019-.017l0-.009a.294.294,0,0,1-.038-.051l-.009-.011-.019-.028-.011-.015,0,0-.006-.009a.082.082,0,0,1-.011-.017,8.15,8.15,0,0,1-1.39-3.242l0-.019a.026.026,0,0,1,0-.013.022.022,0,0,1,0-.009l0-.009v-.006s0-.009,0-.013v0l0-.006a.023.023,0,0,0,0-.011.008.008,0,0,0,0-.006l0-.009,0-.03,0-.026a.04.04,0,0,1,0-.015l0-.006a.009.009,0,0,1,0-.007v-.015h0v-.009a.007.007,0,0,1,0-.006s0-.006,0-.009v-.009a.02.02,0,0,1,0-.01v-.006h0v-.007a.061.061,0,0,0,0-.021l0-.011,0,0a.015.015,0,0,0,0-.009,7.989,7.989,0,0,1,.729-4.641l3.166-6.546,15.041-33.806a18.052,18.052,0,0,1,11.867-10.106l7.226-1.914,5.749-32.57a19.226,19.226,0,0,1,3.178-7.964,14.9,14.9,0,0,1,10.641-6.133h.015a11.275,11.275,0,0,1,2.869-2.049,19.24,19.24,0,0,1,9.034-2.055,28.224,28.224,0,0,1,4.871.443,30.155,30.155,0,0,1,9.292,3.189,22.893,22.893,0,0,1,6.64,5.4,17.851,17.851,0,0,1,4.035,14.677,15,15,0,0,1-4.781,8.842l-5.024,28.445-3.585-.633a.081.081,0,0,0,.032.021l.015.013a21.254,21.254,0,0,1,6.719,7.51c.3.569.582,1.159.836,1.756l9.976,23.809,30.187-30.881.01.017,2.861-3.562A7.1,7.1,0,0,1,3695.9,3150l8.955-4.679a1.9,1.9,0,0,1-.251,2.592l-4.562,4,6.216,3.9,9.509,2.343a1.921,1.921,0,0,1,1.452,1.716l.032.439.665.235a1.059,1.059,0,0,1-.356,2.059,1.3,1.3,0,0,1-.183-.013l-.179-.034-.132.465a1.286,1.286,0,0,1-1.217.932l-3.04.049a1.263,1.263,0,0,1-.2,1,1.284,1.284,0,0,1-.878.522l-4.342.516a13.309,13.309,0,0,1-1.633.1,13.77,13.77,0,0,1-3.664-.5l-7.657-2.113-28.929,39.037a7.667,7.667,0,0,1-3.845,2.765l-.036.009-.032.011-.053.017-.013,0a.062.062,0,0,1-.019,0,.03.03,0,0,1-.013,0l-.017.008a.075.075,0,0,0-.026.009h-.006a.068.068,0,0,1-.017,0l-.009,0a.155.155,0,0,1-.038.009l-.006,0-.011,0-.019.006-.042.013-.062.015a7.835,7.835,0,0,1-5.093-.409l-.006-.006-.006,0s-.006,0-.011,0a.017.017,0,0,1-.009,0l-.01,0-.034-.013a.019.019,0,0,0-.013-.006s0,0,0,0-.006,0-.009,0l-.01,0,0,0-.013-.006-.009-.007-.006,0-.013,0a.164.164,0,0,0-.038-.017l0,0-.011-.006-.009,0a.125.125,0,0,1-.047-.026s0,0-.009,0l-.036-.015s0,0-.009,0,0,0-.009,0l-.019-.01a7.679,7.679,0,0,1-2.647-2.2l-3.79-4.918-3.748-4.783-2.858,9.861a2.6,2.6,0,0,1,.72,1.987l-.028.337.588.748a2.7,2.7,0,0,1,.552,2.012,2.672,2.672,0,0,1-1.279,1.944l-.633.379-.077.543a2.673,2.673,0,0,1-2,2.211l-.028,0-.175.921a2.664,2.664,0,0,1-1.4,1.891l-4.4,15.182a1.245,1.245,0,0,1-1.194.9,1.141,1.141,0,0,1-.348-.051l-2.935-.848-.013,6.114-.083,38.259,26.921,4.745,0-.009,1.223.215a1.242,1.242,0,0,1-1.027-1.294l.6-10.756a1.246,1.246,0,0,1,1.241-1.177,1.487,1.487,0,0,1,.219.017l.1-11.336,2.993,7.45.848-4.788,1.9,5.952,1.563-8.846,1.271,5.964,3.24-5.169-1.565,8.844,3.831-4.941-.844,4.788,5.363-5.975-3.786,10.688a1.244,1.244,0,0,1,.978,1.586l-3.121,10.311a1.24,1.24,0,0,1-1.189.887,1.053,1.053,0,0,1-.192-.015l144.294,25.448,0-.03-31.512-5.551a2.943,2.943,0,0,1-2.383-3.4l.411-2.321a2.93,2.93,0,0,1,2.886-2.422,2.989,2.989,0,0,1,.512.045l2.217.39a2.943,2.943,0,0,1-2.336-3.387l.409-2.321a2.932,2.932,0,0,1,2.891-2.424,2.816,2.816,0,0,1,.51.047l27.1,4.773a.783.783,0,0,1,.629.9l-.243,1.358a.808.808,0,0,1-.06.2,4.592,4.592,0,0,1,3.313-.678L3841.2,3297h0l3.912-5.084,11.317-15.26c.264-.36.533-.688.812-1l0,0,0-.007a.05.05,0,0,0,.015-.017l.006,0h0a.032.032,0,0,1,.007-.009l.006,0,0-.006,0-.007.006-.006.009-.009.011-.006,0-.006.011-.013,0,0,0-.009a.022.022,0,0,0,.009-.011.115.115,0,0,0,.025-.028l.009-.006s0,0,0-.006l.006,0a.017.017,0,0,1,.009-.009s0-.006.009-.009l0-.006s0-.009.009-.009l.011-.011,0,0,.006-.009a.194.194,0,0,0,.019-.023l.006-.006a14.418,14.418,0,0,1,6.992-4.14l.362-.09,17.522-4.466a.787.787,0,0,1-.057-.068l.718-.177.013.013.011.011.006.006a.153.153,0,0,1,.015.021s.006.009.011.013l4.777-1.221.079-.433c-.518.045-.989.068-1.4.068a10.2,10.2,0,0,1-1.757-.143c-2.285-.4-4.928-2.134-7.254-4.756a27.865,27.865,0,0,1-5.781-10.748,31.779,31.779,0,0,1-1.143-6.177v-.006a.158.158,0,0,0,0-.032.211.211,0,0,0,0-.038v-.015a.071.071,0,0,1,0-.021.179.179,0,0,1,0-.034.007.007,0,0,1,0-.006v-.019a.019.019,0,0,1,0-.011l0-.015c0-.023,0-.047,0-.07v-.021l0-.017v-.011a.016.016,0,0,1,0-.011v-.023l0-.015c0-.013,0-.028,0-.043a33.2,33.2,0,0,1,.06-5.389,21.5,21.5,0,0,1,.35-8.908,17.82,17.82,0,0,1,3.679-7.071,18.3,18.3,0,0,1,6.693-4.918,21.861,21.861,0,0,1,8.8-1.765,26.182,26.182,0,0,1,4.547.4,23.124,23.124,0,0,1,6.617,2.121,13.316,13.316,0,0,1,3.7,2.752,7.813,7.813,0,0,1,1.982,3.4c2.219.4,4.6,2.773,5.92,5.922a14.227,14.227,0,0,1,1.081,6.5,14.486,14.486,0,0,1-2.588,7.231l-.013.009a.775.775,0,0,1,.158.019,2.487,2.487,0,0,1,1.835,1.605,6.658,6.658,0,0,1,.4,3.151,9.508,9.508,0,0,1-1.867,4.913,5.829,5.829,0,0,1-4.668,2.379c-.183,0-.356-.009-.51-.021-.228.452-.45.859-.661,1.211l-2.1,11.888,3.042,1.95.554.352,16.269,10.419a14.736,14.736,0,0,1,6.282,8.563.018.018,0,0,0,0,.01.522.522,0,0,0,.011.051.036.036,0,0,1,0,.017.058.058,0,0,1,.009.026l.006.015s0,.013,0,.019l0,.009a.165.165,0,0,0,.009.03l0,.007s0,.01,0,.013,0,.015.006.023v.006a.013.013,0,0,1,0,.009l0,.015a.243.243,0,0,0,.011.038c.041.168.079.331.109.467l2.014.356a3.766,3.766,0,0,1,3.051,4.359l-5.406,30.651a3.755,3.755,0,0,1-3.7,3.11,3.689,3.689,0,0,1-.657-.058l-1.351-.239-1.49,7.209a10.489,10.489,0,0,1-1.946,4.285l-6.851,38.858,1.1.192a2.679,2.679,0,0,1,1.744,1.113,2.651,2.651,0,0,1,.448,2.012,2.7,2.7,0,0,1-2.66,2.236,2.635,2.635,0,0,1-.469-.041l-.94-.166-.505,9.228-3.831,70.193c7.749,1.013,15.7,2.023,23.638,3l4.458-25.281-13.332-2.347,15.847-11.92,4.278.757,9.038,1.59.333-6.721,23.574,1.16,3.106.149,2.036-2.812,21.751,15.734-.912,1.264,9.051,1.607,6.964,16.126-9.518-1.677-3.63,20.568c36.166,3.662,73.105,6.817,109.8,9.375,42.194,2.948,85.328,5.191,128.207,6.67,42.642,1.473,85.959,2.219,128.752,2.219a3647.443,3647.443,0,0,0,413.32-23.208c-.833-1.663-1.724-3.807-1.253-4.573a.638.638,0,0,1,.58-.283,2.3,2.3,0,0,1,.761.168,3.851,3.851,0,0,1,1.509,1.239,13.11,13.11,0,0,1,2.224,3.006l.2-.021.07-.009c.049-.006.094-.011.136-.013a11.685,11.685,0,0,1-.595-4.794v-.041l0-.256c.011-.324.017-.644.021-.917a1.542,1.542,0,0,1,.4-1.224.794.794,0,0,1,.343-.173.84.84,0,0,1,.158-.017c.607,0,1.269.671,1.607,1.332a12.441,12.441,0,0,1,1.143,5.73l.516-.062.844-.1c2.055-.241,3.833-.45,5.619-.665a10,10,0,0,1,5.54-3.735,1.848,1.848,0,0,1,.334-.041.709.709,0,0,1,.407.109c.245.17.326.5.245,1.015a10.764,10.764,0,0,1-.471,1.927c3.4-.411,7.167-.872,12.577-1.539a25.133,25.133,0,0,1-7.693-8.348,5.937,5.937,0,0,1-.008-6.16,9.277,9.277,0,0,1,3.3-2.492c1.526-.838,2.965-1.631,3.581-3.163a3.261,3.261,0,0,0-.443-3.068,3.962,3.962,0,0,0-3.119-1.8,2.805,2.805,0,0,0-.982.173c-.607-.9.158-1.778.968-2.711l0-.006.013-.015c.759-.88,1.543-1.793,1.136-2.744-.32-.759-1.143-.948-2.015-1.149l-.006,0a2.994,2.994,0,0,1-2.017-1.013c-.588-.925.03-1.884.687-2.9l0-.006,0-.009.028-.032.008-.015.011-.015a8.613,8.613,0,0,0,.727-1.292,3.785,3.785,0,0,0-.959-4.063,13.412,13.412,0,0,0-3.982-2.944,4.767,4.767,0,0,0,3.893-5.254,9.04,9.04,0,0,0-1.3-3.057l-.008-.015-.028-.049-.023-.038a13.513,13.513,0,0,1-1.008-2.027,4.148,4.148,0,0,1,.4-3.541,1.922,1.922,0,0,1,1.607-.885h.025c1.29.017,2.177,1.228,2.874,2.411l.329.556c.336.567.731,1.236,1.112,1.891l.168.277c.237.4.476.8.712,1.2.111.19.222.377.333.565l.256.431.309.524.309.529q.393.659.768,1.3c.147.249.292.494.437.738l.134.228a2.8,2.8,0,0,1,2.993-2.145,3.471,3.471,0,0,1,2.042.627c1.4,1.025,2.212,2.867,2.473,5.63.025.262.044.533.066.818v.026l.009.094.021.232v.009a12.742,12.742,0,0,0,1.047,5.005,14.045,14.045,0,0,1,4.105-.723c2.053,0,3.417.7,4.057,2.066.746,1.594.06,3.238-.667,4.975l-.011.021,0,.015a8.582,8.582,0,0,0-.987,4.233c.316,2.5,2.554,3.739,4.924,5.052l.006,0,.026.013.013.009a19.27,19.27,0,0,1,3.3,2.13,8.364,8.364,0,0,1,3.131,5.964,11.266,11.266,0,0,1-1.371,5.653,23.4,23.4,0,0,1-3.754,5.231c11.622-2.665,24.74-5.576,38.995-8.652a11.888,11.888,0,0,1-2.483-1.667c-2.2-1.946-3.562-4.632-4.875-7.233l-.013-.017-.006-.015c-1.3-2.567-2.641-5.223-4.792-7.167a26.214,26.214,0,0,0-4.833-3.176l-.01-.006-.009,0-.028-.013c-2.986-1.66-5.807-3.225-6.923-6.265-1.03-2.805-.1-5.843.8-8.78l0-.006c.921-3,1.872-6.094.714-8.925a13.206,13.206,0,0,0-3.52-4.381l-.006-.006-.008-.009-.006,0-.011-.011-.055-.053c-.452-.416-.808-.757-1.126-1.074-3.406-3.394-5.84-7.879-7.437-13.719a93.762,93.762,0,0,1-2.488-16.045l0-.009v-.01c-.16-1.816-.343-3.875.49-5.649a10.9,10.9,0,0,1,2.464-3.046l.011-.011.006-.009,0,0a20.14,20.14,0,0,0,1.625-1.709,11.888,11.888,0,0,0,2.368-7.666,45.8,45.8,0,0,0-1.062-8.554l0-.013-.008-.045-.058-.313-.008-.038c-.021-.1-.045-.226-.062-.343-.045-.226-.087-.45-.128-.669a23.017,23.017,0,0,1,.087-9.407,10.99,10.99,0,0,1,1.795-3.982,7.541,7.541,0,0,1,3.37-2.584,7.309,7.309,0,0,1,2.688-.509,10.317,10.317,0,0,1,6.146,2.334,17.284,17.284,0,0,1,4.566,5.344,54.1,54.1,0,0,1,2.556,5.606l.008.019.006.015,0,.009c1.307,3.174,2.658,6.457,4.965,9.091a36.122,36.122,0,0,0,5.278,4.613l.011.009.015.01c.1.077.188.147.277.213l.066.051.1.079a51.823,51.823,0,0,0-2.494-5.843l-.019-.049-.013-.023-.02-.038-.011-.028c-.75-1.58-1.6-3.37-2.231-5.093a25.321,25.321,0,0,1-1.486-7.241,27.513,27.513,0,0,1,3.129-14.34,25.415,25.415,0,0,1,4.357-5.977c.414-.416.859-.835,1.277-1.23l.019-.019a15.928,15.928,0,0,0,3.782-4.594c1.716-3.66.428-7.755-.819-11.716l0-.013,0-.01-.021-.07-.013-.041-.03-.1-.03-.092c-.254-.814-.518-1.658-.742-2.475a30.158,30.158,0,0,1-1.053-8.629,32.88,32.88,0,0,1,4.909-16.542,30.363,30.363,0,0,1,5.6-6.655c2.68-2.381,5.2-3.688,7.708-3.992a10.01,10.01,0,0,1,1.194-.071c3.157,0,6.171,1.529,8.957,4.538a34.623,34.623,0,0,1,5.9,9.51,53.627,53.627,0,0,0,5.5,10.409c2.607,3.545,5.511,5.532,8.878,6.073a22.713,22.713,0,0,0,2.925.209h.045c1.965.055,3.993.113,5.64,1.192a6.529,6.529,0,0,1,2.735,5.348,21.357,21.357,0,0,1-.812,6.73l-1.1,4.321-.755,2.959c-.9,3.524-1.808,7.062-2.844,11.138q-.46,1.787-.917,3.581l-.156.605-.121.473c-.505,1.984-.872,3.421-1.192,4.66v.006c-.629,2.464-1.411,5.532-.371,8.23a8.484,8.484,0,0,0,3.632,4.1,32.51,32.51,0,0,0,5.42,2.483l.032.01.028.011.006,0,0,0c3.753,1.456,7.633,2.963,9.093,6.512.927,2.27.646,4.766-.842,7.42a22.091,22.091,0,0,1-5.553,6.177l-.132.1-.113.087c-.066.051-.134.1-.2.158l-.17.132-.154.119-.16.126-.019.013-.006,0a42.517,42.517,0,0,0-5.743,5.063,11.073,11.073,0,0,0-3.053,6.468,10.649,10.649,0,0,0,2.626,7.521,27.891,27.891,0,0,0,6.474,5.655l.168.111.042.03c.207.136.418.277.657.431l.013.011.025.017a48.707,48.707,0,0,1,6.425,4.76,13.536,13.536,0,0,1,4.138,6.406c.844,3.191.1,6.553-.646,9.121a48.806,48.806,0,0,1-6.3,13.355,56.36,56.36,0,0,1-9.965,11.334c6.806-1.39,13.432-2.733,20.25-4.108a7.986,7.986,0,0,1-2.321-4.04,11.11,11.11,0,0,1,.318-5.713,1,1,0,0,1,.324-.552.64.64,0,0,1,.379-.107,1.392,1.392,0,0,1,.343.051,5.009,5.009,0,0,1,2.763,2.673,30.15,30.15,0,0,1,2.637,6.8l.021,0h.011l.013,0,0,0a18.3,18.3,0,0,1-.463-3.558,10,10,0,0,1,2.207-6.924,1.431,1.431,0,0,1,.844-.552l.013,0,.079,0c.638,0,1.042.767,1.209,1.488a23.635,23.635,0,0,1,.311,8.708l.021-.007c.2-.041.369-.074.524-.1l.326-.068a16.924,16.924,0,0,1,2.8-3.95,5.707,5.707,0,0,1,3.547-1.959,1.955,1.955,0,0,1,.217-.009,2.759,2.759,0,0,1,2.822,2.193,3.462,3.462,0,0,1-.52,1.957c11.106-2.206,22.881-4.519,35.006-6.875l1.9-.371c.806-.154,1.643-.318,2.492-.482.441-.085.882-.173,1.326-.258a2.564,2.564,0,0,1-.411-2.2c.688-2.178,5.026-4.012,12.21-7.049l.013-.006.009,0,.049-.019a36.96,36.96,0,0,0,10.1-6.857l.006-.006.009-.009.013-.013c2.92-2.543,5.227-4.551,8.028-4.551a6.786,6.786,0,0,1,2.91.706c.58.269,1.125.5,1.625.674l.179-7.358c-.147,0-.29.009-.441.015l-.147,0-.058,0-.173,0c-.085,0-.158,0-.226,0l-.155,0-.062,0-.023,0h-.019a60.193,60.193,0,0,0-7.113.42,25.433,25.433,0,0,1-4.121.341c-3.311,0-5.745-.669-6.681-1.831a2.067,2.067,0,0,1-.4-1.81,6.183,6.183,0,0,1,1.6-2.5c.172-.194.292-.33.394-.454a14.246,14.246,0,0,0,2.7-4.653,14.609,14.609,0,0,0,.757-4.8,40.135,40.135,0,0,0-1.731-9.81l0-.01-.011-.053-.013-.034-.006-.03,0-.017a50.18,50.18,0,0,1-1.708-8.439,252.92,252.92,0,0,0-3.978-27.04l0-.011,0-.017,0-.026a205.066,205.066,0,0,1-3.415-23.139,113.342,113.342,0,0,1,1.285-27.157,170.368,170.368,0,0,0,2.46-26.959,233.157,233.157,0,0,0-1.639-27.01l-.443.055c-.275.032-.6.073-.987.121l-.12.019-.192.023-.339.043c-.854.106-1.822.226-2.8.334-.288.028-.554.041-.789.041a7.333,7.333,0,0,1-5.323-2.178,7.693,7.693,0,0,1-1.893-5.935c.5-9.565-.723-18.1-1.8-25.623l0-.042,0-.013v-.015c-.448-3.106-.957-6.627-1.241-9.874a8.543,8.543,0,0,1-1.149,1.375,18.769,18.769,0,0,1-5.242,3.626,14.891,14.891,0,0,1-6.137,1.234c-4.082,0-9.062-1.288-16.145-4.176A246.554,246.554,0,0,1,4957.9,3178a11.012,11.012,0,0,0-3.251-.537l-.036,0-.045,0h-.025c-3.788-.354-9.514-.889-10.789-3.963-.253-.625-.623-1.458-1.042-2.4l-.055-.128-.066-.143-.068-.16,0-.01-.013-.026c-1.857-4.182-4.664-10.5-4.5-12.777-8.326-9.573-13.148-15.627-14.331-18-.618-1.236-.744-2.166-.375-2.76.329-.535,1.06-.806,2.172-.806a15.6,15.6,0,0,1,4.171.776l22.491,25.183c-.473-1.283-.87-2.475-.571-2.9a.443.443,0,0,1,.386-.175,1.488,1.488,0,0,1,.448.083c2.473.8,3.492,2.509,4.477,4.165l.009,0,.021.041,0,.006.008.013.017.032c.3.494.605,1.008.953,1.479a7.533,7.533,0,0,1,.853,1.727l.009.019,0,.009c.744,1.9,1.671,4.261,7.265,7.516a149.579,149.579,0,0,0,17.109,8.009c3.773,1.507,7.173,2.7,10.108,3.553a30.841,30.841,0,0,0,7.962,1.479,6,6,0,0,0,2.119-.313c2.784-1.085,7.719-10,11.368-17.281l-5.591-1.68,2.234-4.029a82.123,82.123,0,0,1,2.317-10.773c-.545-6.342-.215-10.989,1.042-14.623l-4.351-8.066c-.348.283-.712.565-1.079.838a2.6,2.6,0,0,1-1.588.473c-2.141,0-5.4-1.823-9.435-5.269a98.836,98.836,0,0,1-12.206-12.9,47.694,47.694,0,0,1-6.41-10.03,6.046,6.046,0,0,1-3.839,1.537,6.2,6.2,0,0,1-4.114-1.757,13.934,13.934,0,0,1-3.159-4.37,19.154,19.154,0,0,1-1.887-7.461,9.751,9.751,0,0,1,1.74-6.48c2.92-3.668,6.9-4.758,11.108-5.911l.019-.007,0,0,.011,0,.077-.017.224-.06.094-.028.128-.036c.633-.175,1.251-.345,1.869-.533a4.086,4.086,0,0,0,1.5-.663c1.262-1.021,1.69-2.852,2.147-4.79v-.01l0-.013,0-.015c.443-1.882.9-3.824,2.162-5.088,1.942-1.948,5.7-3.3,8.559-3.769a9.763,9.763,0,0,1,1.658-.141,7.419,7.419,0,0,1,4.717,1.524c.307.254.623.565.863.81l.066.066.008.009a4.779,4.779,0,0,0,2.537,1.654,8.282,8.282,0,0,0,1.2.083,17.483,17.483,0,0,0,1.908-.134h.025l.011,0a16.648,16.648,0,0,1,1.859-.132,7.235,7.235,0,0,1,2.635.471,14.556,14.556,0,0,1,4.992,3.343,21.742,21.742,0,0,1,3.649,4.807,12.389,12.389,0,0,1,1.938,5.973,8.769,8.769,0,0,1-.51,2.571l-.006.013-.008.03a6.461,6.461,0,0,0-.356,3.814,9.019,9.019,0,0,0,1.106,2.2l.021.034.008.015.032.049.025.043c.2.326.433.7.627,1.076,1.861,3.626.3,7.885-1.075,11.645l-.006.013-.027.077-.068.188-.023.064c-.136.369-.29.789-.431,1.2-.028.081-2.871,8.079-3.72,8.079a.12.12,0,0,1-.077-.028,1.3,1.3,0,0,1-.439-.865,31.54,31.54,0,0,1-2.582,9.654,17.922,17.922,0,0,1,.925,2.358,26.081,26.081,0,0,0,3.106,6.337,12.381,12.381,0,0,1,5.67-1.435,13.538,13.538,0,0,1,6.606,1.848,28.9,28.9,0,0,1,5.821,4.413l57.114,43.236a11.743,11.743,0,0,1,3.8,3.792l15.173,24.207a12.04,12.04,0,0,1-3.812,16.552l-32.126,20.089a11.8,11.8,0,0,1-4.055,1.6A12.142,12.142,0,0,1,5069,3245a57.958,57.958,0,0,1-2.534,11.379c1.3,2.21,2.739,4.47,3.9,6.286l.12.192.07.107.008.017.017.028a128.386,128.386,0,0,1,6.728,11.4c2.172,4.312,3.639,7.642,4.817,10.319l.026.055,0,.015.007.01,0,.007c1.846,4.187,3.067,6.956,5.318,9.833s5.479,5.8,11.477,10.4c4.063,3.115,17.241,10.84,29.984,18.311l.019.011.073.042.111.068.089.051c11.4,6.683,22.167,13,25.87,15.678a16.6,16.6,0,0,1,4.1,4.008,6.961,6.961,0,0,1,1.271,3.7,7.36,7.36,0,0,1-1.554,4.438,19.532,19.532,0,0,1-3.8,3.82l10.761,9.006a4.481,4.481,0,0,1,.861-1.957,1.854,1.854,0,0,1,1.537-.691c3.053,0,8.467,5.046,10.13,8.672.586,1.288.637,2.27.145,2.842-.388.441-.784.885-1.191,1.339l-.224.245-.06.066-.019.019-.017.021a30.287,30.287,0,0,0-4.749,6.263,42.916,42.916,0,0,0-2.23,5.559l-.013.034,0,.011a30.149,30.149,0,0,1-3.6,7.84c-1.552,2.149-4.376,4-8.894,5.815,16.48-2.814,31.212-5.222,43.78-7.156,4.229-1.117,8.537-2.268,13.173-3.523a2.422,2.422,0,0,1-.55-1.356,1.941,1.941,0,0,1,1.626-1.735,3.292,3.292,0,0,1,.6-.058,5.857,5.857,0,0,1,1.925.407c.567.2,1.085.4,1.543.569l.1.041.036.013.258.1.181.068c.262.1.443.168.605.226l1-.271.079-.021.814-.224.68-.187.341-.092q.6-.163,1.2-.33a13.007,13.007,0,0,1-2.166-2.1,40.263,40.263,0,0,1-3.279-5.576c-1.123-2.253-2.345-5.186-1.8-6.352a.889.889,0,0,1,.882-.5,3.259,3.259,0,0,1,1.087.237,5.484,5.484,0,0,1,2.162,1.774c2.573,3.006,2.613,3.1,3.7,5.359l0,.015.068.141c.25.52.533,1.111.878,1.808l-.015-.049-.049-.179q-.105-.38-.2-.729l-.064-.222c-.032-.115-.064-.226-.094-.334l-.011-.034-.015-.051c-1.354-4.813-1.354-4.813-1.271-8.422l0-.218c0-.072,0-.145.006-.217,0-.036,0-.07,0-.1s0-.066,0-.1c0-.07,0-.136,0-.207,0-.038,0-.079,0-.119s0-.092,0-.141c0-.175.008-.365.008-.561a2.255,2.255,0,0,1,.58-1.759,1.135,1.135,0,0,1,.492-.243,1.076,1.076,0,0,1,.232-.026c.874,0,1.82.966,2.3,1.921a17.542,17.542,0,0,1,1.639,7.787,25.41,25.41,0,0,1-1.309,8.149c1.247-.343,2.509-.695,4.542-1.264l-3.223-24.243-.281-.281c-.307-.3-.595-.593-.883-.885l-.39-.388-.021-.015-.009-.011c-6.706-6.681-13.641-13.589-18.709-21.839-2.27-3.562-6.186-6.158-9.972-8.672l-.007,0,0,0,0,0c-3.568-2.373-7.258-4.824-9.535-8.062a12.623,12.623,0,0,1-1.929-4.084,12.891,12.891,0,0,1-.341-5.99,8.91,8.91,0,0,1,2.17-4.221c2.1-2.336,5.332-3.867,8.736-5.355a3.146,3.146,0,0,0-.953-2.957c-1.3-1.173-3.564-1.388-5.757-1.6h-.006c-2.458-.232-4.779-.454-5.877-1.893-1.524-2,.6-4.1,2.844-6.333l.006,0,.02-.019.006-.009c1.763-1.754,3.581-3.566,3.777-5.466a5.964,5.964,0,0,0-.422-2.456l-.006-.028,0-.009a7.527,7.527,0,0,1-.433-1.959c-.073-2,1.4-3.9,2.824-5.74l.006-.013,0-.006.006-.009c1.232-1.59,2.5-3.236,2.812-4.973.448-2.586-1.26-4.807-2.912-6.956-.35-.452-.627-.821-.874-1.16a9.554,9.554,0,0,1-1.846-4.257,4.715,4.715,0,0,1,1.59-4.229c1.445-1.32,3.649-2.036,5.783-2.729l.013,0,.019-.011c2.65-.865,5.155-1.682,6.237-3.536.878-1.5.373-3.061-.117-4.564-.011-.034-.023-.071-.034-.109l-.01-.03c-.064-.2-.118-.369-.165-.522a13.077,13.077,0,0,1-.234-6.661,13.71,13.71,0,0,1,3.449-6.386,18.007,18.007,0,0,1,6.113-4.15,19.6,19.6,0,0,1,7.6-1.614c.265,0,.507.006.744.019.162-3.7.13-7.246.094-10.993v-.247c-.068-7.508-.141-15.271,1.377-23.5a43.347,43.347,0,0,1,3.321-10.319,51.031,51.031,0,0,1,5.679-9.382,58.149,58.149,0,0,1,16.414-14.61c2.953-1.757,6.954-3.773,11.72-3.773.554,0,1.089.025,1.59.074a17.244,17.244,0,0,1,6.478,1.963,19.409,19.409,0,0,1,5.135,3.984,20.689,20.689,0,0,1,3.483,5.135,16.36,16.36,0,0,1,1.528,5.448c.331,3.841-.471,7.552-1.245,11.14l0,.013-.011.045,0,.021a44.234,44.234,0,0,0-1.315,9.349,18.935,18.935,0,0,0,14.327,17.915c1.3.307,2.708.51,3.952.688l.1.017.032.006h.008c3.568.514,7.26,1.045,9.108,3.428a5.512,5.512,0,0,1,.766,4.673,36.1,36.1,0,0,1-3.649,9.1l0,0-.009.03c-1.594,3.115-3.242,6.337-3.775,9.867a16.312,16.312,0,0,0,1.147,9.064,44.651,44.651,0,0,0,4.613,7.791l0,0,.019.03.087.128c.384.554.959,1.4,1.522,2.242a15.7,15.7,0,0,1,2.164,4.63,8.108,8.108,0,0,1-.089,4.9c-1.106,3.061-3.852,4.573-6.506,6.033l-.017.009c-2.426,1.336-4.933,2.718-6.208,5.278a6.488,6.488,0,0,0-.309,4.95,15.168,15.168,0,0,0,2.991,5.061c2.744,3.283,6.743,6.463,10.654,9.409a38.46,38.46,0,0,1,7.373,7.209c2.155,2.852,3.266,5.508,3.215,7.68a5.418,5.418,0,0,1-2.582,4.506,17.249,17.249,0,0,1-5.061,1.985l-.015,0-.074.021-.028.006c-.691.2-1.552.439-2.33.706a18.163,18.163,0,0,0-6.917,4.2,19.763,19.763,0,0,0-4.142,6.161c-2.051,4.673-2.707,10.151-3.08,14.892a18.494,18.494,0,0,1-3.865,9.754,58.59,58.59,0,0,1-7.395,7.717l-.03.028-.053.051a68.78,68.78,0,0,0-6.1,6.135,41.409,41.409,0,0,0-4.914,8.151l0,.009,0,.011-.017.032-.019.036-.043.092c-.848,1.688-1.725,3.428-2.713,4.99,10.332-3.074,20.686-6.237,30.768-9.4l.079-.117c1.825-2.705,4.7-6.3,8.548-6.3.039,0,.081,0,.115,0a2.167,2.167,0,0,1,1.481.454,2.436,2.436,0,0,1,.595,1.671c.013.3.013.588,0,.865q10.317-3.3,20.53-6.679v15q-17.371,5.753-35.07,11.27c-44.509,13.871-91.4,26.863-139.376,38.622-47.429,11.622-96.976,22.3-147.264,31.728-49.834,9.345-101.522,17.682-153.631,24.778-51.795,7.052-105.116,13.031-158.478,17.77-53.2,4.726-107.645,8.328-161.808,10.7-54.131,2.377-109.182,3.581-163.618,3.581ZM3962.5,3446.3l-4.1,23.269h.007l4.1-23.271Zm-56.973,16.74h0Zm-30.8-72.105-8.495,27.967-2.1,38.419c13.647,1.976,27.575,3.9,41.4,5.719l3.824-69.963.522-9.607-.232-.041-30.982-5.457Zm-13.408,44.149-4.078,13.423-2.27,7.476c1.522.226,3.492.514,5.847.857l1.339-24.518Zm-11.031,1.989-1.223,6.857.01,0-1.921,10.882c.955.145,1.857.279,2.727.409l1.748.262,6.378-20.99,4.076-13.421.84-2.758,2.332-42.708-2.253-.4v0ZM4905.72,3448.5l.778-.164c.851-.175,1.625-.337,2.307-.482l.448-.094.565-.121c-.983-.32-1.968-.674-2.929-1.049A20.8,20.8,0,0,1,4905.72,3448.5Zm-1077.25-60.07-9.315,30.675-2.477,12.048-1.217,6.86h.006l-1.462,8.279,19.087-5.173.106-7.056,1.215-63.882-.377-.07Zm-42.209-80.046v0l3.323.588-39.792,129.615c8.446,1.55,17.26,3.127,26.2,4.688l.011-.055a2.8,2.8,0,0,1,2.042-2.21l21.442-5.815.1-7.054,1.573-82.48a15.366,15.366,0,0,1,.35-2.969v-.006l.006-.017a.33.33,0,0,1,.011-.045v0c0-.006,0-.013,0-.021a.026.026,0,0,0,0-.013s0,0,0-.009a.039.039,0,0,1,0-.011l0-.017.006-.026,0-.009v-.006s0-.009,0-.009a.261.261,0,0,1,.013-.06.087.087,0,0,1,0-.013l0-.006c0-.006,0-.01,0-.017l0-.006.006-.036.007-.021,0-.007s0-.006,0-.01v0l0-.013,0-.006a.048.048,0,0,1,0-.017c0-.006,0-.015.006-.026v-.006l0-.009a.021.021,0,0,1,0-.011l0-.006a.01.01,0,0,1,0-.006v-.006a.292.292,0,0,0,.017-.064s0-.007,0-.009a.036.036,0,0,1,0-.011.041.041,0,0,1,0-.019l0-.007v-.009c0-.015.006-.032.009-.042l0-.011.009-.021.019-.075,0-.013,0-.015s0-.006,0-.009v-.006l0-.009.006-.032.009-.026,0-.006c0-.019.01-.036.015-.051l0-.006.008-.023a.121.121,0,0,0,0-.021.256.256,0,0,0,.011-.036.067.067,0,0,0,0-.019.143.143,0,0,1,.006-.015l0-.013a.113.113,0,0,0,0-.013l.006-.023.017-.058a.117.117,0,0,0,.009-.026c0-.013.006-.023.011-.036s.006-.026.01-.041a.008.008,0,0,0,0-.006,14.977,14.977,0,0,1,1.2-2.771.141.141,0,0,0,.007-.017l0,0a.046.046,0,0,1,.007-.011l0-.006s0-.006,0-.011,0,0,0-.006l.019-.034s0,0,.006-.006l0-.006.013-.026a.134.134,0,0,0,.021-.036l0-.007.015-.021.013-.021.011-.017a.1.1,0,0,1,.011-.021.028.028,0,0,0,0-.009s0,0,0-.009a.46.46,0,0,0,.042-.07l0-.006a.015.015,0,0,1,0-.009.146.146,0,0,1,.015-.026l0-.006.01-.017.009-.013,0-.009a.014.014,0,0,0,.006-.01l.013-.021c.011-.017.021-.032.028-.045a.125.125,0,0,0,.015-.028s0-.007.006-.007,0,0,0-.006l.006-.006a.139.139,0,0,1,.009-.017.037.037,0,0,0,.011-.015c0-.011.01-.017.015-.028l.006-.009.011-.017a.14.14,0,0,1,.021-.03.069.069,0,0,1,.011-.017.01.01,0,0,1,0-.007s0,0,0-.006l0,0a.2.2,0,0,1,.034-.049l0-.009a.045.045,0,0,1,.017-.023l0-.009,0-.006.013-.023c0-.006.009-.011.011-.015a.087.087,0,0,1,.01-.015l.011-.017s.006-.009.009-.013l.009-.013.013-.021a.033.033,0,0,0,.009-.011l.006-.011a.046.046,0,0,1,.013-.017l0-.007v0l0,0a.127.127,0,0,1,.015-.019l0-.007.011-.015.019-.032.013-.019h0l0,0a15.03,15.03,0,0,1,8.9-6.231l.94-18.2-157.525-27.776,0,.03-5.986-1.055-1.75,33.913-5.039,97.719.371.243a3.412,3.412,0,0,1,.97.976c31.6,7.049,64.174,13.709,96.805,19.794,1.556.29,3.225.6,5.1.944l39.787-129.594Zm1281.731,94.467c.913.961,1.695,2.963,2.2,5.636a32.609,32.609,0,0,1,.533,7.354c27.3-5.1,52.955-9.727,76.247-13.76-1.486-2.044.194-3.637,2.733-6.048l0,0,.015-.013a35.048,35.048,0,0,0,5.419-6.12c2.733-4.121,2.285-8.1,1.923-11.3l0-.009h0a12.166,12.166,0,0,1-.041-4.266,3.539,3.539,0,0,1,2.826-2.483c.405-.111.723-.209,1-.309l-11.82-11.146c-.337.507-.671,1.068-.959,1.554l-.094.156-.017.034,0,.009c-1.43,2.4-2.9,4.886-5.493,4.886a7.855,7.855,0,0,1-4.408-1.8c-.866-.625-15.645-13.608-20.36-19.437-5.1-6.308-28.432-20.532-39.645-27.368l-.013-.006-.245-.149-.744-.456-1.079-.659-.187-.115c-.087-.051-.173-.1-.256-.156a49.985,49.985,0,0,1-10.729-8.45,32.758,32.758,0,0,1-5.591-8.3l-.006.053-.013.113a199.533,199.533,0,0,0-1.542,21.02,63.326,63.326,0,0,0,2.852,19.916c2.377,7.384,5.007,15.154,7.122,21.4l.111.326.1.3.1.307,0,.019.015.041.582,1.72.448,1.322,1.006,2.972c.528,1.569,1.563,3.792,2.392,5.581l.034.077.008.017,0,.009c2.665,5.749,5.977,12.9,4.393,17.07-.663,1.75-2.281,3.142-4.811,4.138a31.7,31.7,0,0,1-8.3,1.746l.182,5.18a5.539,5.539,0,0,1,2.421-1.241,2.417,2.417,0,0,1,.3-.03A1.888,1.888,0,0,1,5067.992,3402.848Zm-1438.231-4.7.271,9.226,9.946,6.517,4.948-95.9,1.761-34.2-16.674-2.939Zm-26.511,9.526c3.089.744,6.31,1.507,9.055,2.157a5.254,5.254,0,0,1-.124-2.366l.91-5.167,3.306,1.714-3.306-1.716-.443-7.162-2.769-25.064-1.2,6.8h.006l-.239,1.356h-.009ZM3867,3404.88l4.3-14.165,2.021-6.664,2.027-6.668-.512-.09-6.276-1.1Zm1367.528-20.814.365-.1.364-.1c.322-.486.646-1,.951-1.475l.07-.111.041-.066.267-.418.066-.107a52.292,52.292,0,0,1,3.357-4.892,18.51,18.51,0,0,1,3.172-3.131,89.694,89.694,0,0,1-7.667-7.744l-.013-.013-.015-.019c-1.417-1.55-2.69-2.935-3.931-4.2Zm-1408.06-.535,4.259-14.009-1.33-.232Zm1419.52-2.709,0,0c2.162-.618,4.2-1.2,5.994-1.722l.143-.041a23.684,23.684,0,0,1-4-1.848A19.815,19.815,0,0,1,5245.984,3380.822Zm-1365.137-7.947,29.735,5.235.752.132-.674-.119,6.186-35.077c-.264.122-.511.226-.757.318l-.087.034-.041.015-.06.021-.045.015s-.006,0-.009,0a.247.247,0,0,1-.055.019l-.015,0-.011.006-.023.009-.021.007a.055.055,0,0,1-.017,0,.193.193,0,0,1-.021.011l-.011,0-.009,0-.026.009,0,0a.03.03,0,0,0-.013,0,.033.033,0,0,1-.013,0l-.021.009-.023.006a.132.132,0,0,0-.026.009.136.136,0,0,0-.032.013l-.019,0a.132.132,0,0,0-.042.013l-.011,0-.006,0h-.006l-.019.009-.017,0-.006,0-.017,0a.191.191,0,0,0-.023.009.007.007,0,0,1-.006,0l-.006,0a.021.021,0,0,1-.011,0s0,0-.009,0l-.028.009-.017,0-.011,0-.009,0h0v0h-.006a.169.169,0,0,1-.038.008l-.019.007-.013,0a.068.068,0,0,0-.021.009l-.013,0a.072.072,0,0,0-.03.007l-.009,0a.068.068,0,0,0-.028.006h-.01l-.015.007-.017,0-.017,0-.015,0-.011,0-.019.006-.006,0s-.006,0-.009,0l-.009,0c-.021.006-.042.011-.062.015l-.026.007-.015,0a.1.1,0,0,1-.026,0l-.019,0h-.009l-.009,0-.026.007a.356.356,0,0,1-.041.01l-.015,0h-.013l-.079.019h0l-.019,0c-.062.015-.111.026-.154.032a10.6,10.6,0,0,1-1.752.2l-.343,3.624-.113.646a29.807,29.807,0,0,1-29.319,24.629c-.693,0-1.381-.023-2.046-.07Zm-274.914-38.538-9.857,32.107,13.668,2.411-3.812-34.518h0ZM3574.82,3362.7l17.929,3.159L3605,3325.936l-6.806-61.588Zm241.153-31.74h.16a15.52,15.52,0,0,1,2.347.181l-1.16-.207-.906-8.561Zm-1.262-36.006a4.642,4.642,0,0,1,.652-.712.743.743,0,0,1-.143.013.711.711,0,0,1-.132-.013l-.243-.041Zm-232.6-102.682,4.911,1.125,1.486-14.156Zm1468.6-37.543.041.109.036.1.023.06.011.026c.948,2.456,1.927,4.99,3.129,7.48,3.6,7.455,5.24,15.666,6.83,23.608l0,.015.077.388.1.518c.313,1.558.621,3.083.944,4.6l.011.047c.026.111.045.211.062.3l.013.06c.017.075.03.132.041.188l.011.055.023.109,21.227-13.274a11.951,11.951,0,0,1,6.043-1.816l-40.216-26.616C5049.622,3151.9,5050.082,3153.088,5050.709,3154.727Zm-1296.45,142.512-18.315-3.223.288-14.056-50.068-8.823,20.3-54.217,93.36,16.446-20.3,54.217-27.761-4.89,2.5,14.544v0Zm-24.667-4.344-31.163-5.493a1.048,1.048,0,0,1-.846-1.209l.075-.409a1.034,1.034,0,0,1,1.207-.844l31.163,5.5a1.042,1.042,0,0,1,.844,1.2l-.073.411a1.038,1.038,0,0,1-1.023.861A1.057,1.057,0,0,1,3729.591,3292.895ZM4869.88,3189.908c-1.341-1.272-1.5-3.315-1.545-5.3-.077-3.519-.147-6.732-.183-8.6l-.009-.431-.038-1.673v-.011a6.171,6.171,0,0,1,.554-3.33c.889-1.492,2.818-1.95,4.558-2.264l2.675-.482,2.675-.482,2.2-.4,1.8-.324q4.093-.739,8.177-1.475l.989-.177.015,0c3.391-.612,6.9-1.243,9.957-2.955a30.482,30.482,0,0,0,2.993-2l.053-.036.045-.034.015-.017.032-.019.008-.006,0,0a27.731,27.731,0,0,1,3.547-2.3,4.216,4.216,0,0,1,1.573-.586.388.388,0,0,1,.343.151c.271.384.03,1.467-.917,4.142a8.39,8.39,0,0,0-.58,3.138v.019a10.16,10.16,0,0,1-.595,3.449,17.621,17.621,0,0,0-.5,5.645v.162l0,.234c.008.352.013.7.013,1.04a35.215,35.215,0,0,1-1.4,9.789,4.154,4.154,0,0,1-1.087,2.057,3.2,3.2,0,0,1-1.537.656c-.282.055-.578.094-.855.128q-5.432.671-10.865,1.343l-1.266.158-2.671.328-1.2.151-2.432.3-1.712.211-6.22.772-.544.064a19.13,19.13,0,0,1-2.312.175A5.212,5.212,0,0,1,4869.88,3189.908Zm-31.041-38.357a5.914,5.914,0,0,1-.923-3.108,90.551,90.551,0,0,1-.395-11.1,4.177,4.177,0,0,1,1.057-3.244,4.261,4.261,0,0,1,1.784-.72l.013,0,1.138-.267,2.982-.693q3.588-.838,7.184-1.671l2.372-.552,1.688-.392,2.654-.618,4.6-1.07.959-.222,7.23-1.68.006,0a13.9,13.9,0,0,1,3.1-.475,5.394,5.394,0,0,1,1.561.215c2.818.846,4.043,3.764,5.227,6.587l.009.009.006.021a21.638,21.638,0,0,0,1.667,3.43c2.229,3.423,5.425,5.344,8.806,7.378l.011.006.008,0,.435.264c.32.192.665.377.987.548l.066.034.051.028,0,0c1.091.58,2.119,1.128,2.183,1.827.03.377-.219.768-.765,1.188a4.384,4.384,0,0,1-1.889.772,12.307,12.307,0,0,1-2.321.188,47.5,47.5,0,0,1-5.755-.49l-.422-.055-.008,0-.139-.017-.055-.006-.017,0a39.418,39.418,0,0,0-4.372-.405c-.177,0-.371.006-.569.019a45.932,45.932,0,0,0-8.115,1.586l-.017,0-.047.011-.017,0-.072.019c-.84.222-1.52.394-2.074.531-7.885,1.938-16.079,2.735-24.007,3.507l-.038,0h-.017l-.011,0h-.009c-.652.064-1.2.1-1.733.1C4840.915,3153.037,4839.606,3152.549,4838.839,3151.551Zm-39.711-13.947a4.121,4.121,0,0,1-.874-3l-.07-3.466c-.015-.522-.027-1.07-.041-1.722,0-.145-.006-.279-.008-.43,0-.132-.008-.284-.008-.433a2.647,2.647,0,0,1,2.89-3.17l.448-.081,2.925-.527,1.547-.281c2.219-.4,3.924-.7,5.562-1a13.445,13.445,0,0,0,7.331-2.805l0,0,.021-.017.036-.026.015-.013.034-.023a15.524,15.524,0,0,1,1.979-1.283,2.32,2.32,0,0,1,.891-.33.216.216,0,0,1,.192.083c.154.213.017.825-.516,2.345a4.809,4.809,0,0,0-.326,1.78v.013a5.676,5.676,0,0,1-.334,1.942,9.7,9.7,0,0,0-.29,3.168v.043l0,.217c0,.154,0,.377,0,.58a19.8,19.8,0,0,1-.791,5.534,2.233,2.233,0,0,1-.612,1.162,1.792,1.792,0,0,1-.87.375c-.124.023-.266.042-.447.064l-.037,0c-1.473.186-2.922.365-4.53.563q-1.768.218-3.536.435l-1.616.2-2.769.343-2.767.341a11.208,11.208,0,0,1-1.309.1A2.934,2.934,0,0,1,4799.128,3137.6Zm129.492-10.339c-1.057-1.123-.891-3.637-.744-5.856v-.049l0-.006a15.68,15.68,0,0,0,.03-2.967l0-.017v0c-.424-2.711-.906-5.785.188-8.522a4.993,4.993,0,0,1,2.038-2.539c.1-.055.184-.1.265-.134l-.478-2.447a3.536,3.536,0,0,1,2.786-4.127l10.561-2.051a3.488,3.488,0,0,1,.669-.064,3.529,3.529,0,0,1,3.459,2.846l.761,3.918c.659-.047,1.255-.068,1.822-.068a13.287,13.287,0,0,1,3.364.382c2,.52,4.378,1.953,5.067,4.419a7.889,7.889,0,0,1-.49,4.856,10.626,10.626,0,0,1-1.65,3.091c-1.522,1.891-4.02,3.142-7.429,3.718-1.162.2-2.321.311-3.442.422l-.075.006-.032,0-.062.006-.041,0a36.476,36.476,0,0,0-4.762.684,17.315,17.315,0,0,0-5.052,2.65l-.011.006-.03.019-.011.006-.01.011a16.072,16.072,0,0,1-4.11,2.247c-.113.028-.224.053-.346.077a3.637,3.637,0,0,1-.733.077A1.954,1.954,0,0,1,4928.62,3127.265Zm-27.449-3.287-.546-.209,0,0-.025-.009c-4.3-1.65-8.752-3.355-13.238-4.636a49.019,49.019,0,0,0-13.453-2.115,33.48,33.48,0,0,0-7.5.833l-.132.03-.021,0-.011,0-.023,0a15.294,15.294,0,0,1-3.332.507,4.853,4.853,0,0,1-2.283-.51,6.467,6.467,0,0,1-2.04-1.88,20.5,20.5,0,0,1-3.087-6,44.163,44.163,0,0,0-9.882-1.2,32.766,32.766,0,0,0-7.339.812l-.021,0-.021,0a16.126,16.126,0,0,1-3.545.535,5.657,5.657,0,0,1-2.686-.608,7.308,7.308,0,0,1-2.321-2.125c-3.969-5.2-4.736-12.159-5.353-17.746-.1-.921-.3-2.633.874-3.711a3.957,3.957,0,0,1,2.068-.885,91.868,91.868,0,0,1,13.517-1.447l.034,0,.64-.038.057,0h.02l.036,0h.017c5.506-.326,11.2-.665,16.61-2.1a22.24,22.24,0,0,0,3.6-1.554l.051-.026.039-.019.083-.041.125-.06.1-.049.066-.034.119-.058c.542-.266,1.072-.524,1.595-.767-.463-2.539-.791-5.046-1.111-7.606-.16-1.275-.264-2.7.5-3.532a2.863,2.863,0,0,1,1.641-.74,86.009,86.009,0,0,1,14.042-1.234h.038l.039,0h.025c5.6-.181,11.392-.367,16.928-1.916a19.427,19.427,0,0,0,3.775-1.806l.011,0,.023-.013.011-.006.011-.006.006,0c2.125-1.183,4.53-2.524,6.512-2.524a3.53,3.53,0,0,1,1.513.316c1.3.612,2.277,1.993,2.989,4.223a32.09,32.09,0,0,1,1.07,5.483l0,.006.028.213c.682,5.152,1.711,12.939-.068,17.633-.729,1.91-2.249,3.193-3.782,3.193a2.723,2.723,0,0,1-.714-.094c1.695,1.462,2.594,5.263,3.387,8.616l.015.053.013.053,0,.013.023.1.009.036a37.6,37.6,0,0,0,1,3.667l-.576-.275-.081-.036-.01-.006-.013-.006-.049-.023c-2.788-1.339-5.672-2.724-8.544-3.969a43.721,43.721,0,0,1,.265,6.359,14.843,14.843,0,0,1-1.187,5.743,5.391,5.391,0,0,1-1.635,1.978,3.937,3.937,0,0,1-2.324.825,3.01,3.01,0,0,1-.6-.055c1.631,1.175,2.413,4.349,3.106,7.152l0,.013.023.1,0,0a27,27,0,0,0,.906,3.17v0Zm-38.208-42.712-.1.049-.222.109-.019.013-.056.026-.01,0a23.15,23.15,0,0,1-3.92,1.676c-5.653,1.5-11.458,1.833-17.07,2.157l-.015,0-.145.009-.053,0a100.173,100.173,0,0,0-13.758,1.439,2.653,2.653,0,0,0-1.239.465c-.467.435-.431,1.39-.334,2.266l.008.049c.6,5.367,1.352,12.044,5.007,16.842a5.708,5.708,0,0,0,1.754,1.637,4,4,0,0,0,1.889.411,15.5,15.5,0,0,0,3.266-.51l.011,0,.042-.009c.469-.1.8-.175,1.077-.226a34.507,34.507,0,0,1,6.608-.627,44.251,44.251,0,0,1,9.228,1.031,65.75,65.75,0,0,1-1.53-9.394c-.128-1.149-.143-2.307.6-3a3.373,3.373,0,0,1,1.659-.671,101.188,101.188,0,0,1,13.937-1.464l.028,0,.049,0h.011l.028,0,.2-.01a11.143,11.143,0,0,1-1.2-1.541,32.216,32.216,0,0,1-4.391-11.379C4863.781,3080.856,4863.289,3081.1,4862.963,3081.266Z" transform="translate(-3411.049 -2428.579)" fill="#ffe644" stroke="rgba(0,0,0,0)" stroke-miterlimit="10" stroke-width="1"/>
  </g>
</svg>
