<svg xmlns="http://www.w3.org/2000/svg" width="476.202" height="548.853" viewBox="0 0 476.202 548.853">
  <g id="Group_1108" data-name="Group 1108" transform="translate(-1062.886 -4271.87)">
    <g id="Group_1070" data-name="Group 1070" transform="translate(12 -730)">
      <g id="Characters" transform="translate(1178.148 5136.927)">
        <path id="Hand_2_" d="M760.416,681.118c.388-1.2.8-2.381,1.223-3.565,14.823-41.041,52.028-70,90.94-89.743,13.426-6.813,27.648-13.1,37.8-24.212,23.125-25.3,16.079-67.032-14-83.37,13.969,7.583,54.389-8.088,32.636-24.057-5.144-3.779-11.627-5.137-17.373-7.913s-11.252-8.017-10.857-14.39a15.79,15.79,0,0,1,3.035-7.687c6.859-10.094,18.932-15.82,25.4-26.166,1.43-2.291,2.588-4.9,2.362-7.6-.362-4.27-4.206-7.583-8.334-8.722-41.061-11.31-72.7,38.6-113.347,34.053-2.323-.259-4.807-.666-6.878.414-2.407,1.262-3.442,4.115-4.135,6.742a85.4,85.4,0,0,0,3.986,55.03c6.121,14.312,16.435,28.1,14.882,43.59-1.391,13.866-12.261,25.81-11.97,39.741.078,3.707.951,7.493,0,11.077-1.436,5.4-6.6,8.89-11.6,11.388-24.328,12.145-52.662,12.332-79.145,18.492-1.87.433-3.83.951-5.189,2.3-2.368,2.349-2.058,6.173-1.728,9.492,2.588,25.862-3.591,51.711-9.725,76.964l-20.323,83.681c-.718,2.95-1.326,6.412.634,8.728a9.451,9.451,0,0,0,4.29,2.452,156.065,156.065,0,0,0,28.094,6.975c7.57,1.152,15.464,1.715,22.763-.608,11.342-3.61,19.5-13.672,24.807-24.328C752.276,742.528,750.969,710.151,760.416,681.118Z" transform="translate(-657.387 -382.024)" fill="#d4a79a"/>
        <path id="Hand_1_" d="M721.412,534.36c4.762-12.578,10.915-24.62,15.063-37.418,3.332-10.288,5.325-20.964,6.975-31.653,3.015-19.5,3.028-39.165,3.83-58.88,10.087,4.678,21.643,15.723,23.358,26.709s-1.915,22.174-3.112,33.232c-2.944,27.285-3.779,57.075,12.721,79,6.237,8.288,14.358,14.979,20.88,23.041s11.517,18.324,9.757,28.547c-2.18,12.688-13.775,21.333-24.794,27.991a353.254,353.254,0,0,1-45.04,23c-9.156,3.876-10.592,7.991-22.963,8.12-6.781.071-16.027-22.834-13.516-50.688C707.346,574.463,710.271,563.8,721.412,534.36Z" transform="translate(-673.893 -390.632)" fill="#d4a79a"/>
      </g>
      <path id="Path_1705" data-name="Path 1705" d="M904,230.09H793.678A22.873,22.873,0,0,0,770.87,252.9V363.547C819.462,319.924,869,277.356,920.645,237.421A22.7,22.7,0,0,0,904,230.09Z" transform="translate(480.705 4808.531)" fill="#eff0fc"/>
      <path id="Path_1706" data-name="Path 1706" d="M920.655,241.42c-51.646,39.935-101.176,82.5-149.775,126.126V526.9A22.877,22.877,0,0,0,793.688,549.7H904A22.873,22.873,0,0,0,926.808,526.9V256.891a22.669,22.669,0,0,0-5.927-15.257C920.8,241.562,920.726,241.5,920.655,241.42Z" transform="translate(480.702 4804.531)" fill="#f2f2f2"/>
      <path id="Path_1707" data-name="Path 1707" d="M904,230.09H793.678A22.873,22.873,0,0,0,770.87,252.9V522.9a22.873,22.873,0,0,0,22.808,22.808H903.99A22.873,22.873,0,0,0,926.8,522.9V252.9A22.871,22.871,0,0,0,904,230.09ZM916.9,493.458A22.873,22.873,0,0,1,894.1,516.266H803.571a22.873,22.873,0,0,1-22.808-22.808V263.5a22.873,22.873,0,0,1,22.808-22.808H894.1A22.877,22.877,0,0,1,916.9,263.5V493.458Z" transform="translate(480.705 4808.531)" fill="#131313"/>
      <path id="Path_1708" data-name="Path 1708" d="M897.957,239.831H867.339a.679.679,0,0,1-.679-.679v-1.242a.679.679,0,0,1,.679-.679h30.617a.679.679,0,0,1,.679.679v1.242A.679.679,0,0,1,897.957,239.831Z" transform="translate(446.894 4806.011)" fill="#e3e5fc"/>
      <circle id="Ellipse_148" data-name="Ellipse 148" cx="8.088" cy="8.088" r="8.088" transform="translate(1321.455 5330.452)" fill="#4b369d"/>
      <g id="Touch" transform="translate(1289.394 5137.656)">
        <circle id="Ellipse_149" data-name="Ellipse 149" cx="43.28" cy="43.28" r="43.28" fill="#ffe644" opacity="0.36"/>
        <circle id="Ellipse_150" data-name="Ellipse 150" cx="32.772" cy="32.772" r="32.772" transform="translate(10.508 10.508)" fill="#ffe644" opacity="0.36"/>
        <circle id="Ellipse_151" data-name="Ellipse 151" cx="17.69" cy="17.69" r="17.69" transform="translate(25.59 25.59)" fill="#ffe644"/>
      </g>
      <g id="Wifi" transform="translate(1393.366 5001.87)">
        <g id="Group_1051" data-name="Group 1051" transform="translate(0 0)">
          <path id="Path_1709" data-name="Path 1709" d="M1034.39,220.1a2.427,2.427,0,0,1-2.426-2.426,39.572,39.572,0,0,0-39.527-39.527,2.426,2.426,0,1,1,0-4.853,44.424,44.424,0,0,1,44.373,44.373A2.419,2.419,0,0,1,1034.39,220.1Z" transform="translate(-990.01 -173.29)" fill="#131313"/>
        </g>
        <g id="Group_1052" data-name="Group 1052" transform="translate(1.669 15.263)">
          <path id="Path_1710" data-name="Path 1710" d="M1021.706,228.423A2.427,2.427,0,0,1,1019.28,226a24.289,24.289,0,0,0-24.264-24.264,2.426,2.426,0,1,1,0-4.853A29.142,29.142,0,0,1,1024.126,226,2.418,2.418,0,0,1,1021.706,228.423Z" transform="translate(-992.59 -196.88)" fill="#131313"/>
        </g>
      </g>
      <g id="Element" transform="translate(1457.719 5067.511)">
        <path id="Path_1711" data-name="Path 1711" d="M1155.182,285.617h-62.057a3.664,3.664,0,0,1-3.656-3.656V278.4a3.664,3.664,0,0,1,3.656-3.656h62.057a3.664,3.664,0,0,1,3.656,3.656v3.565A3.664,3.664,0,0,1,1155.182,285.617Z" transform="translate(-1089.47 -274.74)" fill="#131313"/>
        <path id="Path_1712" data-name="Path 1712" d="M1155.182,314.147h-62.057a3.664,3.664,0,0,1-3.656-3.656v-3.565a3.664,3.664,0,0,1,3.656-3.656h62.057a3.664,3.664,0,0,1,3.656,3.656v3.565A3.669,3.669,0,0,1,1155.182,314.147Z" transform="translate(-1089.47 -284.81)" fill="#131313"/>
        <path id="Path_1713" data-name="Path 1713" d="M1155.182,342.667h-62.057a3.664,3.664,0,0,1-3.656-3.656v-3.565a3.664,3.664,0,0,1,3.656-3.656h62.057a3.664,3.664,0,0,1,3.656,3.656v3.565A3.664,3.664,0,0,1,1155.182,342.667Z" transform="translate(-1089.47 -294.877)" fill="#131313"/>
        <path id="Path_1714" data-name="Path 1714" d="M1155.182,371.2h-62.057a3.664,3.664,0,0,1-3.656-3.656v-3.565a3.664,3.664,0,0,1,3.656-3.656h62.057a3.664,3.664,0,0,1,3.656,3.656v3.565A3.664,3.664,0,0,1,1155.182,371.2Z" transform="translate(-1089.47 -304.947)" fill="#131313"/>
      </g>
      <g id="Element_1_" transform="translate(1050.886 5139.461)">
        <g id="Group_1053" data-name="Group 1053" transform="translate(0 0)">
          <path id="Path_1715" data-name="Path 1715" d="M607.1,400.731H464.356a3.664,3.664,0,0,1-3.656-3.656V389.6a3.664,3.664,0,0,1,3.656-3.656H607.1a3.664,3.664,0,0,1,3.656,3.656v7.48A3.664,3.664,0,0,1,607.1,400.731Z" transform="translate(-460.7 -385.94)" fill="#131313"/>
          <path id="Path_1716" data-name="Path 1716" d="M637.508,439.521H550.5a3.664,3.664,0,0,1-3.656-3.656v-7.48a3.664,3.664,0,0,1,3.656-3.656h87.013a3.664,3.664,0,0,1,3.656,3.656v7.48A3.664,3.664,0,0,1,637.508,439.521Z" transform="translate(-491.105 -399.632)" fill="#131313"/>
        </g>
        <g id="Group_1054" data-name="Group 1054" transform="translate(60.582 81.384)">
          <path id="Path_1717" data-name="Path 1717" d="M640.152,526.5H557.986a3.664,3.664,0,0,1-3.656-3.656v-7.473a3.664,3.664,0,0,1,3.656-3.656h82.167a3.664,3.664,0,0,1,3.656,3.656v7.473A3.664,3.664,0,0,1,640.152,526.5Z" transform="translate(-554.33 -511.72)" fill="#131313"/>
          <path id="Path_1718" data-name="Path 1718" d="M658.281,565.291H609.346a3.664,3.664,0,0,1-3.656-3.656v-7.48a3.664,3.664,0,0,1,3.656-3.656h48.935a3.664,3.664,0,0,1,3.656,3.656v7.48A3.664,3.664,0,0,1,658.281,565.291Z" transform="translate(-572.458 -525.408)" fill="#131313"/>
        </g>
      </g>
      <g id="Characters_copy" transform="translate(1291.185 5176.574)">
        <path id="Hand_3_" d="M999.405,696.865a159.648,159.648,0,0,1-1.339-17.709c-.7-39.585,5.124-91.348-32.727-115.579-17.03-10.9-39.54-11.6-53.361-28.023-5.086-6.043-7.823-13.775-10.417-21.333q-12.132-35.309-23.416-70.921c-7.725.848-12.145,9.576-13.846,17.431-4.937,22.769,1.229,46.515,9.3,68.294s18.182,43.1,21.546,66.172c1.275,8.754-1.391,21.048-9.925,20.724-4.51-.175-7.933-4.225-10.236-8.25-9.363-16.351-12.151-39.689-29.278-46.5-4.536-1.805-11.019-1.152-12.5,3.649-.8,2.588-1.669,5.364-.654,7.868,14.248,35.3,24.9,67.194,46.839,97.974,8.366,11.744,26.108,24,34.163,36,28.845,42.982,28.159,49.608,51.737,95.463,1.559,3.035,4.723-26.011,7.635-24.361,2.8,1.592.886,14.4,4.057,14,16.014-1.986,34.649,9.6,49.013,1.993,2.388-1.262,4.9-2.653,6.224-5.079s1.152-5.4.951-8.178C1029.732,733.571,1005.448,743.16,999.405,696.865Z" transform="translate(-832.088 -443.3)" fill="#eac2ab"/>
      </g>
      <g id="Group_1068" data-name="Group 1068" transform="translate(1316.699 5064.059)">
        <g id="Group_1063" data-name="Group 1063" transform="translate(0 0)">
          <path id="Path_1736" data-name="Path 1736" d="M313.024,265.456a14.312,14.312,0,0,1-1.659,6.887,13.382,13.382,0,0,1-1.826,2.626.793.793,0,0,1-1.3-.182l-10.724-22.119a.793.793,0,0,1,.37-1.059.8.8,0,0,1,.371-.079c.309.012.61.027.905.045a21.661,21.661,0,0,1,3.77.513A14.233,14.233,0,0,1,307,253.7a12.453,12.453,0,0,1,4.435,4.731A14.625,14.625,0,0,1,313.024,265.456Z" transform="translate(-287.318 -251.49)" fill="#131313"/>
          <path id="Path_1737" data-name="Path 1737" d="M231.979,276.739a.823.823,0,0,1-.216.994,19.744,19.744,0,0,1-2.591,1.518,22.637,22.637,0,0,1-2.7,1.1.822.822,0,0,1-1-.423L212.163,252.4a.822.822,0,0,1,.741-1.185h6.186a.823.823,0,0,1,.741.465Z" transform="translate(-212.079 -251.21)" fill="#131313"/>
        </g>
        <path id="Path_1738" data-name="Path 1738" d="M216.955,403.553l-4.762,9.847a.822.822,0,0,0,.741,1.185h9.524a.822.822,0,0,0,.741-1.179l-4.766-9.853a.824.824,0,0,0-1.481,0Z" transform="translate(-212.105 -385.091)" fill="#131313"/>
      </g>
    </g>
  </g>
</svg>
