<svg xmlns="http://www.w3.org/2000/svg" width="592.859" height="510.739" viewBox="0 0 592.859 510.739">
  <g id="Group_1107" data-name="Group 1107" transform="translate(-286.414 -3469.843)">
    <path id="Path_1678" data-name="Path 1678" d="M874.6,884.6H715.152a8.87,8.87,0,0,1-8.842-8.842v-1.607a8.87,8.87,0,0,1,8.842-8.842H874.6a8.87,8.87,0,0,1,8.842,8.842v1.607A8.87,8.87,0,0,1,874.6,884.6Z" transform="translate(-212.026 3021.444)" fill="#131313"/>
    <path id="Path_1679" data-name="Path 1679" d="M859.458,840.3h-60.4a6.921,6.921,0,0,1-6.9-6.9V761.6a6.921,6.921,0,0,1,6.9-6.9h60.4a6.921,6.921,0,0,1,6.9,6.9v71.806A6.923,6.923,0,0,1,859.458,840.3Z" transform="translate(-246.41 3065.745)" fill="#131313"/>
    <path id="Path_1680" data-name="Path 1680" d="M933.427,546.33H378.558a19.053,19.053,0,0,1-19-19V188.858a19.053,19.053,0,0,1,19-19H933.421a19.053,19.053,0,0,1,19,19V527.332A19.044,19.044,0,0,1,933.427,546.33Z" transform="translate(-73.146 3299.983)" fill="#131313"/>
    <path id="Path_1681" data-name="Path 1681" d="M394.34,184.47a18.7,18.7,0,0,0-18.65,18.65V323.58q88.061-70.7,178.406-139.11H394.34Z" transform="translate(-79.607 3294.132)" fill="#eff0fc"/>
    <path id="Path_1682" data-name="Path 1682" d="M928.288,184.47H554.1Q463.877,253.009,375.69,323.58V495.59a18.7,18.7,0,0,0,18.65,18.65H928.288a18.7,18.7,0,0,0,18.65-18.65V203.12A18.7,18.7,0,0,0,928.288,184.47Z" transform="translate(-79.607 3294.132)" fill="#e3e5fc"/>
    <circle id="Ellipse_147" data-name="Ellipse 147" cx="5.156" cy="5.156" r="5.156" transform="translate(576.552 3819.755)" fill="#ffe644"/>
    <g id="Background" transform="translate(492.464 3502.739)">
      <g id="Mop">
        <g id="Group_1024" data-name="Group 1024" transform="translate(25.165 26.637)">
          <path id="Path_1683" data-name="Path 1683" d="M1078.964,420.388a3.355,3.355,0,0,1-2.224-.839l-164.5-144.481a3.368,3.368,0,1,1,4.448-5.06l164.5,144.487a3.363,3.363,0,0,1-2.224,5.893Z" transform="translate(-911.091 -269.167)" fill="#978cff"/>
        </g>
        <g id="Group_1025" data-name="Group 1025">
          <path id="Path_1684" data-name="Path 1684" d="M874.729,281.658a5.617,5.617,0,0,1-3.986-9.574l45.363-45.693a5.617,5.617,0,0,1,7.973,7.913L878.715,280A5.6,5.6,0,0,1,874.729,281.658Z" transform="translate(-869.114 -224.734)" fill="#978cff"/>
        </g>
      </g>
      <g id="Ladder" transform="translate(132.727 159.206)">
        <g id="Group_1026" data-name="Group 1026" transform="translate(0)">
          <rect id="Rectangle_243" data-name="Rectangle 243" width="2.248" height="319.333" transform="translate(0 0.165) rotate(-4.198)" fill="#4b369d"/>
        </g>
        <g id="Group_1027" data-name="Group 1027" transform="translate(52.406 0.002)">
          <rect id="Rectangle_244" data-name="Rectangle 244" width="2.248" height="319.333" transform="translate(0 0.165) rotate(-4.198)" fill="#4b369d"/>
        </g>
        <g id="Group_1028" data-name="Group 1028" transform="translate(3.461 30.517)">
          <rect id="Rectangle_245" data-name="Rectangle 245" width="52.407" height="2.248" fill="#4b369d"/>
        </g>
        <g id="Group_1029" data-name="Group 1029" transform="translate(6.159 58.309)">
          <rect id="Rectangle_246" data-name="Rectangle 246" width="52.407" height="2.248" fill="#4b369d"/>
        </g>
        <g id="Group_1030" data-name="Group 1030" transform="translate(8.862 86.107)">
          <rect id="Rectangle_247" data-name="Rectangle 247" width="52.407" height="2.248" fill="#4b369d"/>
        </g>
        <g id="Group_1031" data-name="Group 1031" transform="translate(8.862 113.905)">
          <rect id="Rectangle_248" data-name="Rectangle 248" width="52.407" height="2.248" fill="#4b369d"/>
        </g>
        <g id="Group_1032" data-name="Group 1032" transform="translate(11.56 141.697)">
          <rect id="Rectangle_249" data-name="Rectangle 249" width="52.407" height="2.248" fill="#4b369d"/>
        </g>
        <g id="Group_1033" data-name="Group 1033" transform="translate(14.258 169.495)">
          <rect id="Rectangle_250" data-name="Rectangle 250" width="52.407" height="2.248" fill="#4b369d"/>
        </g>
        <g id="Group_1034" data-name="Group 1034" transform="translate(14.258 197.287)">
          <rect id="Rectangle_251" data-name="Rectangle 251" width="52.407" height="2.248" fill="#4b369d"/>
        </g>
        <g id="Group_1035" data-name="Group 1035" transform="translate(16.955 225.085)">
          <rect id="Rectangle_252" data-name="Rectangle 252" width="52.407" height="2.248" fill="#4b369d"/>
        </g>
      </g>
    </g>
    <g id="Head" transform="translate(651.811 3588.742)">
      <g id="Face" transform="translate(4.84 6.091)">
        <path id="Path_1685" data-name="Path 1685" d="M1189.82,442.546l.833,15.509,12.139,4.682s-7.3-10.677-6.061-20.185S1189.82,442.546,1189.82,442.546Z" transform="translate(-1177.781 -404.041)" fill="#131313"/>
        <path id="Path_1686" data-name="Path 1686" d="M1170.932,387.914s-2.644,3.5-.066,14.244,6.762,19.909,10,19.267c8.95-1.786,12.092-8.111,15.191-13.542,3.807-6.654-3.747-22.894-3.747-22.894l-7.14-3.849Z" transform="translate(-1169.737 -381.14)" fill="#131313"/>
      </g>
      <path id="Hair" d="M1169.515,375.458c-5.7,5.413-7.589,13.734-7.823,21.587a39,39,0,0,0,1.205,11.822c1.2,4.268,3.423,8.165,5.257,12.2a4.524,4.524,0,0,1,.563,2.206,5.467,5.467,0,0,1-1.2,2.434,15.662,15.662,0,0,0,.048,17.205,8.27,8.27,0,0,0,5.012,3.723c2.614.492,6.307-.39,7.188,2.122.438,1.253-.264,2.68.15,3.939.612,1.852,3.117,2.164,5.036,1.792s4.04-1.043,5.707-.024c2.188,1.343,2.26,4.874,4.538,6.055a6.111,6.111,0,0,0,2.836.45c3.98-.006,5.767,3.015,9.747,3.009,1.781-.006,5.875-3.075,7.338-4.088s2.1-3.381.786-4.568c-1.277-1.151-3.615-.635-4.64-2.014-1.637-2.218,2.458-4.982,1.78-7.655-.228-.905-1-1.619-1.163-2.536-.2-1.091.492-2.122.809-3.189,1.043-3.477-1.882-6.8-4.706-9.082s-6.109-4.91-6.1-8.537c.012-4.286,4.712-7.32,5.173-11.588.492-4.556-4.022-8.495-3.639-13.057.234-2.782,2.266-5.156,2.56-7.931.342-3.2-1.661-6.127-3.567-8.723a21.793,21.793,0,0,0-4.868-5.287c-2.68-1.852-4.766-.611-7.416-1.319-2.362-.629-4.041-2.716-6.7-3.2A16.585,16.585,0,0,0,1169.515,375.458Z" transform="translate(-1161.663 -370.98)" fill="#131313"/>
    </g>
    <g id="Leg_1_" transform="translate(666.764 3706.749)">
      <path id="Skin_1_" d="M1253.61,735.455l14.567,14.7,5.413-4.364-16.108-14.43C1257.483,731.354,1254.186,733.308,1253.61,735.455Z" transform="translate(-1213.443 -633.325)" fill="#d4a79a"/>
      <path id="Shoe_1_" d="M1262.848,782.912s4.1-3.237,9.826-10.809,11.756-16.264,11.618-18.638-9.508-9.9-11.216-7.248,1.457,6.163-4.988,8.627c-5.521,2.11-2.056,8.884-5.083,16.815S1258.742,782.792,1262.848,782.912Z" transform="translate(-1216.093 -639.052)" fill="#f3aa02"/>
      <path id="Leg_3_" d="M1216.553,633.292c1.427,5.623,1.84,11.714,4.922,16.312,4.682,6.99,12.9,9,20.418,10.527-2.146,6.876-6.283,12.631-10.335,18.224-3,4.136-6.067,8.345-10.065,11.12-1.355-5.341-2.728-10.737-5.143-15.545-2.158-4.292-5.084-7.991-7.619-12-7.53-11.912-11.432-26.305-15.215-40.411-1.972-7.362-16.276-65,3.207-51.711C1209.947,578.823,1206.787,594.781,1216.553,633.292Z" transform="translate(-1186.607 -567.827)" fill="#4b369d"/>
    </g>
    <g id="Leg" transform="translate(630.156 3701.477)">
      <path id="Skin" d="M1176.132,773.884l-4.442,20.209,6.606,2.182,3.381-21.36S1178.243,773.206,1176.132,773.884Z" transform="translate(-1144.025 -645.02)" fill="#eac2ab"/>
      <path id="Shoe" d="M1126.164,813.084s4.94,1.685,14.412,2.392,20.041,1.055,21.965-.354,3.159-13.357,0-13.357-4.382,4.568-9.951.492c-4.772-3.495-8.579,3.093-16.881,4.85S1124.036,809.571,1126.164,813.084Z" transform="translate(-1125.541 -656.045)" fill="#fdc510"/>
      <path id="Leg_2_" d="M1150.322,692.4a5.785,5.785,0,0,1,1.99-1.75c6.936-4.844,5.833-12.973,5.221-20.053-1.451-16.792,2.3-33.391,4.352-49.967a168.584,168.584,0,0,0-1.3-48.648c-.983-5.839-2.278-14.849,6.51-12.6a34.732,34.732,0,0,0,12.583.7c2.236-.246.024-1.109,2.236-.246,7.53,2.937,1.768,10.5-.132,15.461-3.783,9.873-.186,29.093-1.373,39.734-1.678,15.083-2.68,27.606-1.834,42.731.414,7.41.971,14.813,1.487,22.217.3,4.316,3.285,13.932.641,17.655-3.633,5.114-18.05-.33-22.948-.761C1154.068,696.552,1149.087,694.844,1150.322,692.4Z" transform="translate(-1135.389 -559.032)" fill="#5a54ff"/>
    </g>
    <path id="Arm" d="M1116.578,457.407c-6.846,5.174-16.09,14.352-22.678,3.681-3.447-5.587-5.881-11.72-9.1-17.439-2.284-5.929-5.024-12.188-4.814-18.674.216-6.624-.174-15.557-.809-17.181s-8.237-8.758-8.333-5.791,4.244,13.86-1.4,8.7c-1.7-1.547-.7,1.319-.12,4.766s5.173,8.009,5.173,8.009c4.562,19.171,3.237,41.892,24.441,51.3,5.887,2.614,15.149-5.833,19.873-8.735,1.672-1.031,18.224-12.4,18.668-11.966q-2.923-2.869-5.845-5.743a3.133,3.133,0,0,0-1.625-1.037,3.052,3.052,0,0,0-2.1.761c-3.111,2.182-5.833,4.856-8.752,7.29Q1117.9,456.409,1116.578,457.407Z" transform="translate(-472.539 3205.623)" fill="#eac2ab"/>
    <g id="Body_1_" transform="translate(645.742 3642.918)">
      <path id="Path_1687" data-name="Path 1687" d="M1165.249,524.081c0-.713-1.187-19.189,1.421-31.035s0-22.031,9-29.141,16.348,2.368,18.716,7.344.228,30.4.563,38.769c.342,8.555,0,7.008,1.888,16.216,1.2,5.887,12.475,19.723-1.75,15.581-4.832-1.409-14.963-2.014-19.1-3.477-3.7-1.307-8.081-2.23-11.006-5.258C1164.062,532.132,1165.249,524.081,1165.249,524.081Z" transform="translate(-1156.784 -461.351)" fill="#ffe644"/>
      <path id="Path_1688" data-name="Path 1688" d="M1154.975,473.592s16.63-17.727,23.008-9.682-16.2,24.633-16.2,24.633l-10.245-13.32Z" transform="translate(-1151.54 -461.538)" fill="#ffe644"/>
    </g>
    <g id="Group_1069" data-name="Group 1069" transform="translate(322.683 3502.642)">
      <g id="Group_1063" data-name="Group 1063" transform="translate(0 0)">
        <path id="Path_1736" data-name="Path 1736" d="M318.979,270.776a19.779,19.779,0,0,1-2.293,9.517,18.5,18.5,0,0,1-2.524,3.629,1.1,1.1,0,0,1-1.8-.252L297.542,253.1a1.1,1.1,0,0,1,.511-1.464,1.108,1.108,0,0,1,.513-.11c.427.016.843.038,1.251.062a29.935,29.935,0,0,1,5.21.709,19.67,19.67,0,0,1,5.624,2.237,17.208,17.208,0,0,1,6.128,6.538A20.211,20.211,0,0,1,318.979,270.776Z" transform="translate(-283.454 -251.475)" fill="#131313"/>
        <path id="Path_1737" data-name="Path 1737" d="M239.579,286.489a1.137,1.137,0,0,1-.3,1.374,27.283,27.283,0,0,1-3.58,2.1,31.291,31.291,0,0,1-3.726,1.515,1.137,1.137,0,0,1-1.381-.585l-18.4-38.044a1.137,1.137,0,0,1,1.024-1.638h8.549a1.137,1.137,0,0,1,1.024.642Z" transform="translate(-212.079 -251.21)" fill="#131313"/>
      </g>
      <path id="Path_1738" data-name="Path 1738" d="M218.806,403.73l-6.58,13.608a1.137,1.137,0,0,0,1.024,1.638h13.162a1.136,1.136,0,0,0,1.024-1.63l-6.587-13.616a1.138,1.138,0,0,0-2.047,0Z" transform="translate(-212.104 -378.217)" fill="#131313"/>
    </g>
  </g>
</svg>
